<?xml version="1.0" encoding="utf-8" standalone="no"?>
<!DOCTYPE svg PUBLIC "-//W3C//DTD SVG 1.1//EN"
  "http://www.w3.org/Graphics/SVG/1.1/DTD/svg11.dtd">
<svg xmlns:xlink="http://www.w3.org/1999/xlink" width="199.8pt" height="199.8pt" viewBox="0 0 199.8 199.8" xmlns="http://www.w3.org/2000/svg" version="1.1">
 <metadata>
  <rdf:RDF xmlns:dc="http://purl.org/dc/elements/1.1/" xmlns:cc="http://creativecommons.org/ns#" xmlns:rdf="http://www.w3.org/1999/02/22-rdf-syntax-ns#">
   <cc:Work>
    <dc:type rdf:resource="http://purl.org/dc/dcmitype/StillImage"/>
    <dc:date>2023-06-27T19:10:22.447204</dc:date>
    <dc:format>image/svg+xml</dc:format>
    <dc:creator>
     <cc:Agent>
      <dc:title>Matplotlib v3.7.1, https://matplotlib.org/</dc:title>
     </cc:Agent>
    </dc:creator>
   </cc:Work>
  </rdf:RDF>
 </metadata>
 <defs>
  <style type="text/css">*{stroke-linejoin: round; stroke-linecap: butt}</style>
 </defs>
 <g id="figure_1">
  <g id="patch_1">
   <path d="M 0 199.8 
L 199.8 199.8 
L 199.8 0 
L 0 0 
L 0 199.8 
z
" style="fill: none"/>
  </g>
  <g id="axes_1">
   <g id="patch_2">
    <path d="M 0 199.8 
L 199.8 199.8 
L 199.8 -0 
L 0 -0 
L 0 199.8 
z
" style="fill: none"/>
   </g>
   <g id="patch_3">
    <path d="M 77.837483 17.561564 
Q 99.9 99.9 67.278908 178.654283 
" clip-path="url(#p148547121a)" style="fill: none; opacity: 0.4; stroke: #f2f7fd; stroke-width: 2; stroke-linejoin: miter"/>
   </g>
   <g id="patch_4">
    <path d="M 57.278489 26.077378 
Q 99.9 99.9 17.561564 77.837483 
" clip-path="url(#p148547121a)" style="fill: none; opacity: 0.412554; stroke: #eef5fc; stroke-width: 2; stroke-linejoin: miter"/>
   </g>
   <g id="patch_5">
    <path d="M 99.9 14.656979 
Q 99.9 99.9 185.143021 99.9 
" clip-path="url(#p148547121a)" style="fill: none; opacity: 0.474353; stroke: #dae8f6; stroke-width: 2; stroke-linejoin: miter"/>
   </g>
   <g id="patch_6">
    <path d="M 121.962517 17.561564 
Q 99.9 99.9 39.624081 39.624081 
" clip-path="url(#p148547121a)" style="fill: none; opacity: 0.746539; stroke: #519ccc; stroke-width: 2; stroke-linejoin: miter"/>
   </g>
   <g id="patch_7">
    <path d="M 121.962517 17.561564 
Q 99.9 99.9 17.561564 77.837483 
" clip-path="url(#p148547121a)" style="fill: none; opacity: 0.467856; stroke: #dce9f6; stroke-width: 2; stroke-linejoin: miter"/>
   </g>
   <g id="patch_8">
    <path d="M 178.654283 132.521092 
Q 99.9 99.9 48.007336 32.272164 
" clip-path="url(#p148547121a)" style="fill: none; opacity: 0.61035; stroke: #a1cbe2; stroke-width: 2; stroke-linejoin: miter"/>
   </g>
   <g id="patch_9">
    <path d="M 178.654283 132.521092 
Q 99.9 99.9 39.624081 39.624081 
" clip-path="url(#p148547121a)" style="fill: none; opacity: 0.537324; stroke: #c7dbef; stroke-width: 2; stroke-linejoin: miter"/>
   </g>
   <g id="patch_10">
    <path d="M 142.521511 26.077378 
Q 99.9 99.9 167.527836 151.792664 
" clip-path="url(#p148547121a)" style="fill: none; opacity: 0.563999; stroke: #b9d6ea; stroke-width: 2; stroke-linejoin: miter"/>
   </g>
   <g id="patch_11">
    <path d="M 67.278908 21.145717 
Q 99.9 99.9 182.238436 121.962517 
" clip-path="url(#p148547121a)" style="fill: none; stroke: #083370; stroke-width: 2; stroke-linejoin: miter"/>
   </g>
   <g id="patch_12">
    <path d="M 67.278908 21.145717 
Q 99.9 99.9 77.837483 17.561564 
" clip-path="url(#p148547121a)" style="fill: none; opacity: 0.944176; stroke: #084b93; stroke-width: 2; stroke-linejoin: miter"/>
   </g>
   <g id="patch_13">
    <path d="M 67.278908 21.145717 
Q 99.9 99.9 178.654283 132.521092 
" clip-path="url(#p148547121a)" style="fill: none; opacity: 0.627295; stroke: #97c6df; stroke-width: 2; stroke-linejoin: miter"/>
   </g>
   <g id="patch_14">
    <path d="M 67.278908 21.145717 
Q 99.9 99.9 167.527836 151.792664 
" clip-path="url(#p148547121a)" style="fill: none; opacity: 0.533245; stroke: #c8dcf0; stroke-width: 2; stroke-linejoin: miter"/>
   </g>
   <g id="patch_15">
    <path d="M 67.278908 21.145717 
Q 99.9 99.9 99.9 185.143021 
" clip-path="url(#p148547121a)" style="fill: none; opacity: 0.482268; stroke: #d8e7f5; stroke-width: 2; stroke-linejoin: miter"/>
   </g>
   <g id="patch_16">
    <path d="M 173.722622 57.278489 
Q 99.9 99.9 111.026447 184.413756 
" clip-path="url(#p148547121a)" style="fill: none; opacity: 0.549341; stroke: #c1d9ed; stroke-width: 2; stroke-linejoin: miter"/>
   </g>
   <g id="patch_17">
    <path d="M 88.773553 184.413756 
Q 99.9 99.9 17.561564 77.837483 
" clip-path="url(#p148547121a)" style="fill: none; opacity: 0.533237; stroke: #c8dcf0; stroke-width: 2; stroke-linejoin: miter"/>
   </g>
   <g id="patch_18">
    <path d="M 111.026447 184.413756 
Q 99.9 99.9 32.272164 151.792664 
" clip-path="url(#p148547121a)" style="fill: none; opacity: 0.426143; stroke: #e9f2fa; stroke-width: 2; stroke-linejoin: miter"/>
   </g>
   <g id="patch_19">
    <path d="M 182.238436 121.962517 
Q 99.9 99.9 26.077378 142.521511 
" clip-path="url(#p148547121a)" style="fill: none; opacity: 0.491704; stroke: #d5e5f4; stroke-width: 2; stroke-linejoin: miter"/>
   </g>
   <g id="patch_20">
    <path d="M 48.007336 167.527836 
Q 99.9 99.9 151.792664 167.527836 
" clip-path="url(#p148547121a)" style="fill: none; opacity: 0.494816; stroke: #d3e4f3; stroke-width: 2; stroke-linejoin: miter"/>
   </g>
   <g id="patch_21">
    <path d="M 142.521511 173.722622 
Q 99.9 99.9 17.561564 77.837483 
" clip-path="url(#p148547121a)" style="fill: none; opacity: 0.494038; stroke: #d4e4f4; stroke-width: 2; stroke-linejoin: miter"/>
   </g>
   <g id="patch_22">
    <path d="M 142.521511 173.722622 
Q 99.9 99.9 39.624081 160.175919 
" clip-path="url(#p148547121a)" style="fill: none; opacity: 0.430712; stroke: #e8f1fa; stroke-width: 2; stroke-linejoin: miter"/>
   </g>
   <g id="patch_23">
    <path d="M 39.624081 165.751079 
C 41.102631 165.751079 42.520823 165.163645 43.566315 164.118152 
C 44.611808 163.07266 45.199242 161.654468 45.199242 160.175919 
C 45.199242 158.697369 44.611808 157.279177 43.566315 156.233685 
C 42.520823 155.188192 41.102631 154.600758 39.624081 154.600758 
C 38.145532 154.600758 36.72734 155.188192 35.681848 156.233685 
C 34.636355 157.279177 34.048921 158.697369 34.048921 160.175919 
C 34.048921 161.654468 34.636355 163.07266 35.681848 164.118152 
C 36.72734 165.163645 38.145532 165.751079 39.624081 165.751079 
z
" clip-path="url(#p148547121a)" style="fill: #fb9a98"/>
   </g>
   <g id="patch_24">
    <path d="M 77.837483 23.136724 
C 79.316032 23.136724 80.734224 22.54929 81.779716 21.503798 
C 82.825209 20.458305 83.412643 19.040114 83.412643 17.561564 
C 83.412643 16.083014 82.825209 14.664823 81.779716 13.61933 
C 80.734224 12.573838 79.316032 11.986404 77.837483 11.986404 
C 76.358933 11.986404 74.940741 12.573838 73.895249 13.61933 
C 72.849756 14.664823 72.262322 16.083014 72.262322 17.561564 
C 72.262322 19.040114 72.849756 20.458305 73.895249 21.503798 
C 74.940741 22.54929 76.358933 23.136724 77.837483 23.136724 
z
" clip-path="url(#p148547121a)" style="fill: #b2df8a"/>
   </g>
   <g id="patch_25">
    <path d="M 184.413756 94.348713 
C 185.892305 94.348713 187.310497 93.761279 188.355989 92.715787 
C 189.401482 91.670294 189.988916 90.252103 189.988916 88.773553 
C 189.988916 87.295003 189.401482 85.876812 188.355989 84.831319 
C 187.310497 83.785827 185.892305 83.198393 184.413756 83.198393 
C 182.935206 83.198393 181.517015 83.785827 180.471522 84.831319 
C 179.426029 85.876812 178.838595 87.295003 178.838595 88.773553 
C 178.838595 90.252103 179.426029 91.670294 180.471522 92.715787 
C 181.517015 93.761279 182.935206 94.348713 184.413756 94.348713 
z
" clip-path="url(#p148547121a)" style="fill: #a6cee3"/>
   </g>
   <g id="patch_26">
    <path d="M 182.238436 83.412643 
C 183.716986 83.412643 185.135177 82.825209 186.18067 81.779716 
C 187.226162 80.734224 187.813596 79.316032 187.813596 77.837483 
C 187.813596 76.358933 187.226162 74.940741 186.18067 73.895249 
C 185.135177 72.849756 183.716986 72.262322 182.238436 72.262322 
C 180.759886 72.262322 179.341695 72.849756 178.296202 73.895249 
C 177.25071 74.940741 176.663276 76.358933 176.663276 77.837483 
C 176.663276 79.316032 177.25071 80.734224 178.296202 81.779716 
C 179.341695 82.825209 180.759886 83.412643 182.238436 83.412643 
z
" clip-path="url(#p148547121a)" style="fill: #a6cee3"/>
   </g>
   <g id="patch_27">
    <path d="M 57.278489 31.652538 
C 58.757039 31.652538 60.17523 31.065104 61.220723 30.019612 
C 62.266216 28.974119 62.85365 27.555928 62.85365 26.077378 
C 62.85365 24.598828 62.266216 23.180637 61.220723 22.135144 
C 60.17523 21.089652 58.757039 20.502218 57.278489 20.502218 
C 55.799939 20.502218 54.381748 21.089652 53.336256 22.135144 
C 52.290763 23.180637 51.703329 24.598828 51.703329 26.077378 
C 51.703329 27.555928 52.290763 28.974119 53.336256 30.019612 
C 54.381748 31.065104 55.799939 31.652538 57.278489 31.652538 
z
" clip-path="url(#p148547121a)" style="fill: #31a02d"/>
   </g>
   <g id="patch_28">
    <path d="M 99.9 20.232139 
C 101.37855 20.232139 102.796741 19.644705 103.842234 18.599212 
C 104.887726 17.55372 105.47516 16.135528 105.47516 14.656979 
C 105.47516 13.178429 104.887726 11.760237 103.842234 10.714745 
C 102.796741 9.669252 101.37855 9.081818 99.9 9.081818 
C 98.42145 9.081818 97.003259 9.669252 95.957766 10.714745 
C 94.912274 11.760237 94.32484 13.178429 94.32484 14.656979 
C 94.32484 16.135528 94.912274 17.55372 95.957766 18.599212 
C 97.003259 19.644705 98.42145 20.232139 99.9 20.232139 
z
" clip-path="url(#p148547121a)" style="fill: #2078b4"/>
   </g>
   <g id="patch_29">
    <path d="M 88.773553 20.961405 
C 90.252103 20.961405 91.670294 20.373971 92.715787 19.328478 
C 93.761279 18.282985 94.348713 16.864794 94.348713 15.386244 
C 94.348713 13.907695 93.761279 12.489503 92.715787 11.444011 
C 91.670294 10.398518 90.252103 9.811084 88.773553 9.811084 
C 87.295003 9.811084 85.876812 10.398518 84.831319 11.444011 
C 83.785827 12.489503 83.198393 13.907695 83.198393 15.386244 
C 83.198393 16.864794 83.785827 18.282985 84.831319 19.328478 
C 85.876812 20.373971 87.295003 20.961405 88.773553 20.961405 
z
" clip-path="url(#p148547121a)" style="fill: #2078b4"/>
   </g>
   <g id="patch_30">
    <path d="M 111.026447 20.961405 
C 112.504997 20.961405 113.923188 20.373971 114.968681 19.328478 
C 116.014173 18.282985 116.601607 16.864794 116.601607 15.386244 
C 116.601607 13.907695 116.014173 12.489503 114.968681 11.444011 
C 113.923188 10.398518 112.504997 9.811084 111.026447 9.811084 
C 109.547897 9.811084 108.129706 10.398518 107.084213 11.444011 
C 106.038721 12.489503 105.451287 13.907695 105.451287 15.386244 
C 105.451287 16.864794 106.038721 18.282985 107.084213 19.328478 
C 108.129706 20.373971 109.547897 20.961405 111.026447 20.961405 
z
" clip-path="url(#p148547121a)" style="fill: #2078b4"/>
   </g>
   <g id="patch_31">
    <path d="M 121.962517 23.136724 
C 123.441067 23.136724 124.859259 22.54929 125.904751 21.503798 
C 126.950244 20.458305 127.537678 19.040114 127.537678 17.561564 
C 127.537678 16.083014 126.950244 14.664823 125.904751 13.61933 
C 124.859259 12.573838 123.441067 11.986404 121.962517 11.986404 
C 120.483968 11.986404 119.065776 12.573838 118.020284 13.61933 
C 116.974791 14.664823 116.387357 16.083014 116.387357 17.561564 
C 116.387357 19.040114 116.974791 20.458305 118.020284 21.503798 
C 119.065776 22.54929 120.483968 23.136724 121.962517 23.136724 
z
" clip-path="url(#p148547121a)" style="fill: #2078b4"/>
   </g>
   <g id="patch_32">
    <path d="M 178.654283 138.096252 
C 180.132833 138.096252 181.551024 137.508818 182.596517 136.463326 
C 183.642009 135.417833 184.229443 133.999642 184.229443 132.521092 
C 184.229443 131.042542 183.642009 129.624351 182.596517 128.578858 
C 181.551024 127.533366 180.132833 126.945932 178.654283 126.945932 
C 177.175733 126.945932 175.757542 127.533366 174.712049 128.578858 
C 173.666557 129.624351 173.079122 131.042542 173.079122 132.521092 
C 173.079122 133.999642 173.666557 135.417833 174.712049 136.463326 
C 175.757542 137.508818 177.175733 138.096252 178.654283 138.096252 
z
" clip-path="url(#p148547121a)" style="fill: #fdbf6e"/>
   </g>
   <g id="patch_33">
    <path d="M 142.521511 31.652538 
C 144.000061 31.652538 145.418252 31.065104 146.463744 30.019612 
C 147.509237 28.974119 148.096671 27.555928 148.096671 26.077378 
C 148.096671 24.598828 147.509237 23.180637 146.463744 22.135144 
C 145.418252 21.089652 144.000061 20.502218 142.521511 20.502218 
C 141.042961 20.502218 139.62477 21.089652 138.579277 22.135144 
C 137.533784 23.180637 136.94635 24.598828 136.94635 26.077378 
C 136.94635 27.555928 137.533784 28.974119 138.579277 30.019612 
C 139.62477 31.065104 141.042961 31.652538 142.521511 31.652538 
z
" clip-path="url(#p148547121a)" style="fill: #2078b4"/>
   </g>
   <g id="patch_34">
    <path d="M 151.792664 37.847325 
C 153.271213 37.847325 154.689405 37.25989 155.734897 36.214398 
C 156.78039 35.168905 157.367824 33.750714 157.367824 32.272164 
C 157.367824 30.793614 156.78039 29.375423 155.734897 28.32993 
C 154.689405 27.284438 153.271213 26.697004 151.792664 26.697004 
C 150.314114 26.697004 148.895922 27.284438 147.85043 28.32993 
C 146.804937 29.375423 146.217503 30.793614 146.217503 32.272164 
C 146.217503 33.750714 146.804937 35.168905 147.85043 36.214398 
C 148.895922 37.25989 150.314114 37.847325 151.792664 37.847325 
z
" clip-path="url(#p148547121a)" style="fill: #2078b4"/>
   </g>
   <g id="patch_35">
    <path d="M 173.722622 148.096671 
C 175.201172 148.096671 176.619363 147.509237 177.664856 146.463744 
C 178.710348 145.418252 179.297782 144.000061 179.297782 142.521511 
C 179.297782 141.042961 178.710348 139.62477 177.664856 138.579277 
C 176.619363 137.533784 175.201172 136.94635 173.722622 136.94635 
C 172.244072 136.94635 170.825881 137.533784 169.780388 138.579277 
C 168.734896 139.62477 168.147462 141.042961 168.147462 142.521511 
C 168.147462 144.000061 168.734896 145.418252 169.780388 146.463744 
C 170.825881 147.509237 172.244072 148.096671 173.722622 148.096671 
z
" clip-path="url(#p148547121a)" style="fill: #fdbf6e"/>
   </g>
   <g id="patch_36">
    <path d="M 167.527836 157.367824 
C 169.006386 157.367824 170.424577 156.78039 171.47007 155.734897 
C 172.515562 154.689405 173.102996 153.271213 173.102996 151.792664 
C 173.102996 150.314114 172.515562 148.895922 171.47007 147.85043 
C 170.424577 146.804937 169.006386 146.217503 167.527836 146.217503 
C 166.049286 146.217503 164.631095 146.804937 163.585602 147.85043 
C 162.54011 148.895922 161.952675 150.314114 161.952675 151.792664 
C 161.952675 153.271213 162.54011 154.689405 163.585602 155.734897 
C 164.631095 156.78039 166.049286 157.367824 167.527836 157.367824 
z
" clip-path="url(#p148547121a)" style="fill: #fdbf6e"/>
   </g>
   <g id="patch_37">
    <path d="M 160.175919 165.751079 
C 161.654468 165.751079 163.07266 165.163645 164.118152 164.118152 
C 165.163645 163.07266 165.751079 161.654468 165.751079 160.175919 
C 165.751079 158.697369 165.163645 157.279177 164.118152 156.233685 
C 163.07266 155.188192 161.654468 154.600758 160.175919 154.600758 
C 158.697369 154.600758 157.279177 155.188192 156.233685 156.233685 
C 155.188192 157.279177 154.600758 158.697369 154.600758 160.175919 
C 154.600758 161.654468 155.188192 163.07266 156.233685 164.118152 
C 157.279177 165.163645 158.697369 165.751079 160.175919 165.751079 
z
" clip-path="url(#p148547121a)" style="fill: #fdbf6e"/>
   </g>
   <g id="patch_38">
    <path d="M 67.278908 26.720878 
C 68.757458 26.720878 70.175649 26.133443 71.221142 25.087951 
C 72.266634 24.042458 72.854068 22.624267 72.854068 21.145717 
C 72.854068 19.667167 72.266634 18.248976 71.221142 17.203483 
C 70.175649 16.157991 68.757458 15.570557 67.278908 15.570557 
C 65.800358 15.570557 64.382167 16.157991 63.336674 17.203483 
C 62.291182 18.248976 61.703748 19.667167 61.703748 21.145717 
C 61.703748 22.624267 62.291182 24.042458 63.336674 25.087951 
C 64.382167 26.133443 65.800358 26.720878 67.278908 26.720878 
z
" clip-path="url(#p148547121a)" style="fill: #b2df8a"/>
   </g>
   <g id="patch_39">
    <path d="M 17.561564 83.412643 
C 19.040114 83.412643 20.458305 82.825209 21.503798 81.779716 
C 22.54929 80.734224 23.136724 79.316032 23.136724 77.837483 
C 23.136724 76.358933 22.54929 74.940741 21.503798 73.895249 
C 20.458305 72.849756 19.040114 72.262322 17.561564 72.262322 
C 16.083014 72.262322 14.664823 72.849756 13.61933 73.895249 
C 12.573838 74.940741 11.986404 76.358933 11.986404 77.837483 
C 11.986404 79.316032 12.573838 80.734224 13.61933 81.779716 
C 14.664823 82.825209 16.083014 83.412643 17.561564 83.412643 
z
" clip-path="url(#p148547121a)" style="fill: #31a02d"/>
   </g>
   <g id="patch_40">
    <path d="M 173.722622 62.85365 
C 175.201172 62.85365 176.619363 62.266216 177.664856 61.220723 
C 178.710348 60.17523 179.297782 58.757039 179.297782 57.278489 
C 179.297782 55.799939 178.710348 54.381748 177.664856 53.336256 
C 176.619363 52.290763 175.201172 51.703329 173.722622 51.703329 
C 172.244072 51.703329 170.825881 52.290763 169.780388 53.336256 
C 168.734896 54.381748 168.147462 55.799939 168.147462 57.278489 
C 168.147462 58.757039 168.734896 60.17523 169.780388 61.220723 
C 170.825881 62.266216 172.244072 62.85365 173.722622 62.85365 
z
" clip-path="url(#p148547121a)" style="fill: #2078b4"/>
   </g>
   <g id="patch_41">
    <path d="M 21.145717 72.854068 
C 22.624267 72.854068 24.042458 72.266634 25.087951 71.221142 
C 26.133443 70.175649 26.720878 68.757458 26.720878 67.278908 
C 26.720878 65.800358 26.133443 64.382167 25.087951 63.336674 
C 24.042458 62.291182 22.624267 61.703748 21.145717 61.703748 
C 19.667167 61.703748 18.248976 62.291182 17.203483 63.336674 
C 16.157991 64.382167 15.570557 65.800358 15.570557 67.278908 
C 15.570557 68.757458 16.157991 70.175649 17.203483 71.221142 
C 18.248976 72.266634 19.667167 72.854068 21.145717 72.854068 
z
" clip-path="url(#p148547121a)" style="fill: #31a02d"/>
   </g>
   <g id="patch_42">
    <path d="M 15.386244 94.348713 
C 16.864794 94.348713 18.282985 93.761279 19.328478 92.715787 
C 20.373971 91.670294 20.961405 90.252103 20.961405 88.773553 
C 20.961405 87.295003 20.373971 85.876812 19.328478 84.831319 
C 18.282985 83.785827 16.864794 83.198393 15.386244 83.198393 
C 13.907695 83.198393 12.489503 83.785827 11.444011 84.831319 
C 10.398518 85.876812 9.811084 87.295003 9.811084 88.773553 
C 9.811084 90.252103 10.398518 91.670294 11.444011 92.715787 
C 12.489503 93.761279 13.907695 94.348713 15.386244 94.348713 
z
" clip-path="url(#p148547121a)" style="fill: #31a02d"/>
   </g>
   <g id="patch_43">
    <path d="M 32.272164 53.582497 
C 33.750714 53.582497 35.168905 52.995063 36.214398 51.94957 
C 37.25989 50.904078 37.847325 49.485886 37.847325 48.007336 
C 37.847325 46.528787 37.25989 45.110595 36.214398 44.065103 
C 35.168905 43.01961 33.750714 42.432176 32.272164 42.432176 
C 30.793614 42.432176 29.375423 43.01961 28.32993 44.065103 
C 27.284438 45.110595 26.697004 46.528787 26.697004 48.007336 
C 26.697004 49.485886 27.284438 50.904078 28.32993 51.94957 
C 29.375423 52.995063 30.793614 53.582497 32.272164 53.582497 
z
" clip-path="url(#p148547121a)" style="fill: #31a02d"/>
   </g>
   <g id="patch_44">
    <path d="M 160.175919 45.199242 
C 161.654468 45.199242 163.07266 44.611808 164.118152 43.566315 
C 165.163645 42.520823 165.751079 41.102631 165.751079 39.624081 
C 165.751079 38.145532 165.163645 36.72734 164.118152 35.681848 
C 163.07266 34.636355 161.654468 34.048921 160.175919 34.048921 
C 158.697369 34.048921 157.279177 34.636355 156.233685 35.681848 
C 155.188192 36.72734 154.600758 38.145532 154.600758 39.624081 
C 154.600758 41.102631 155.188192 42.520823 156.233685 43.566315 
C 157.279177 44.611808 158.697369 45.199242 160.175919 45.199242 
z
" clip-path="url(#p148547121a)" style="fill: #2078b4"/>
   </g>
   <g id="patch_45">
    <path d="M 151.792664 173.102996 
C 153.271213 173.102996 154.689405 172.515562 155.734897 171.47007 
C 156.78039 170.424577 157.367824 169.006386 157.367824 167.527836 
C 157.367824 166.049286 156.78039 164.631095 155.734897 163.585602 
C 154.689405 162.54011 153.271213 161.952675 151.792664 161.952675 
C 150.314114 161.952675 148.895922 162.54011 147.85043 163.585602 
C 146.804937 164.631095 146.217503 166.049286 146.217503 167.527836 
C 146.217503 169.006386 146.804937 170.424577 147.85043 171.47007 
C 148.895922 172.515562 150.314114 173.102996 151.792664 173.102996 
z
" clip-path="url(#p148547121a)" style="fill: #fdbf6e"/>
   </g>
   <g id="patch_46">
    <path d="M 88.773553 189.988916 
C 90.252103 189.988916 91.670294 189.401482 92.715787 188.355989 
C 93.761279 187.310497 94.348713 185.892305 94.348713 184.413756 
C 94.348713 182.935206 93.761279 181.517015 92.715787 180.471522 
C 91.670294 179.426029 90.252103 178.838595 88.773553 178.838595 
C 87.295003 178.838595 85.876812 179.426029 84.831319 180.471522 
C 83.785827 181.517015 83.198393 182.935206 83.198393 184.413756 
C 83.198393 185.892305 83.785827 187.310497 84.831319 188.355989 
C 85.876812 189.401482 87.295003 189.988916 88.773553 189.988916 
z
" clip-path="url(#p148547121a)" style="fill: #fdbf6e"/>
   </g>
   <g id="patch_47">
    <path d="M 132.521092 184.229443 
C 133.999642 184.229443 135.417833 183.642009 136.463326 182.596517 
C 137.508818 181.551024 138.096252 180.132833 138.096252 178.654283 
C 138.096252 177.175733 137.508818 175.757542 136.463326 174.712049 
C 135.417833 173.666557 133.999642 173.079122 132.521092 173.079122 
C 131.042542 173.079122 129.624351 173.666557 128.578858 174.712049 
C 127.533366 175.757542 126.945932 177.175733 126.945932 178.654283 
C 126.945932 180.132833 127.533366 181.551024 128.578858 182.596517 
C 129.624351 183.642009 131.042542 184.229443 132.521092 184.229443 
z
" clip-path="url(#p148547121a)" style="fill: #fdbf6e"/>
   </g>
   <g id="patch_48">
    <path d="M 39.624081 45.199242 
C 41.102631 45.199242 42.520823 44.611808 43.566315 43.566315 
C 44.611808 42.520823 45.199242 41.102631 45.199242 39.624081 
C 45.199242 38.145532 44.611808 36.72734 43.566315 35.681848 
C 42.520823 34.636355 41.102631 34.048921 39.624081 34.048921 
C 38.145532 34.048921 36.72734 34.636355 35.681848 35.681848 
C 34.636355 36.72734 34.048921 38.145532 34.048921 39.624081 
C 34.048921 41.102631 34.636355 42.520823 35.681848 43.566315 
C 36.72734 44.611808 38.145532 45.199242 39.624081 45.199242 
z
" clip-path="url(#p148547121a)" style="fill: #31a02d"/>
   </g>
   <g id="patch_49">
    <path d="M 48.007336 37.847325 
C 49.485886 37.847325 50.904078 37.25989 51.94957 36.214398 
C 52.995063 35.168905 53.582497 33.750714 53.582497 32.272164 
C 53.582497 30.793614 52.995063 29.375423 51.94957 28.32993 
C 50.904078 27.284438 49.485886 26.697004 48.007336 26.697004 
C 46.528787 26.697004 45.110595 27.284438 44.065103 28.32993 
C 43.01961 29.375423 42.432176 30.793614 42.432176 32.272164 
C 42.432176 33.750714 43.01961 35.168905 44.065103 36.214398 
C 45.110595 37.25989 46.528787 37.847325 48.007336 37.847325 
z
" clip-path="url(#p148547121a)" style="fill: #31a02d"/>
   </g>
   <g id="patch_50">
    <path d="M 178.654283 72.854068 
C 180.132833 72.854068 181.551024 72.266634 182.596517 71.221142 
C 183.642009 70.175649 184.229443 68.757458 184.229443 67.278908 
C 184.229443 65.800358 183.642009 64.382167 182.596517 63.336674 
C 181.551024 62.291182 180.132833 61.703748 178.654283 61.703748 
C 177.175733 61.703748 175.757542 62.291182 174.712049 63.336674 
C 173.666557 64.382167 173.079122 65.800358 173.079122 67.278908 
C 173.079122 68.757458 173.666557 70.175649 174.712049 71.221142 
C 175.757542 72.266634 177.175733 72.854068 178.654283 72.854068 
z
" clip-path="url(#p148547121a)" style="fill: #a6cee3"/>
   </g>
   <g id="patch_51">
    <path d="M 121.962517 187.813596 
C 123.441067 187.813596 124.859259 187.226162 125.904751 186.18067 
C 126.950244 185.135177 127.537678 183.716986 127.537678 182.238436 
C 127.537678 180.759886 126.950244 179.341695 125.904751 178.296202 
C 124.859259 177.25071 123.441067 176.663276 121.962517 176.663276 
C 120.483968 176.663276 119.065776 177.25071 118.020284 178.296202 
C 116.974791 179.341695 116.387357 180.759886 116.387357 182.238436 
C 116.387357 183.716986 116.974791 185.135177 118.020284 186.18067 
C 119.065776 187.226162 120.483968 187.813596 121.962517 187.813596 
z
" clip-path="url(#p148547121a)" style="fill: #fdbf6e"/>
   </g>
   <g id="patch_52">
    <path d="M 111.026447 189.988916 
C 112.504997 189.988916 113.923188 189.401482 114.968681 188.355989 
C 116.014173 187.310497 116.601607 185.892305 116.601607 184.413756 
C 116.601607 182.935206 116.014173 181.517015 114.968681 180.471522 
C 113.923188 179.426029 112.504997 178.838595 111.026447 178.838595 
C 109.547897 178.838595 108.129706 179.426029 107.084213 180.471522 
C 106.038721 181.517015 105.451287 182.935206 105.451287 184.413756 
C 105.451287 185.892305 106.038721 187.310497 107.084213 188.355989 
C 108.129706 189.401482 109.547897 189.988916 111.026447 189.988916 
z
" clip-path="url(#p148547121a)" style="fill: #fdbf6e"/>
   </g>
   <g id="patch_53">
    <path d="M 26.077378 148.096671 
C 27.555928 148.096671 28.974119 147.509237 30.019612 146.463744 
C 31.065104 145.418252 31.652538 144.000061 31.652538 142.521511 
C 31.652538 141.042961 31.065104 139.62477 30.019612 138.579277 
C 28.974119 137.533784 27.555928 136.94635 26.077378 136.94635 
C 24.598828 136.94635 23.180637 137.533784 22.135144 138.579277 
C 21.089652 139.62477 20.502218 141.042961 20.502218 142.521511 
C 20.502218 144.000061 21.089652 145.418252 22.135144 146.463744 
C 23.180637 147.509237 24.598828 148.096671 26.077378 148.096671 
z
" clip-path="url(#p148547121a)" style="fill: #fb9a98"/>
   </g>
   <g id="patch_54">
    <path d="M 99.9 190.718182 
C 101.37855 190.718182 102.796741 190.130748 103.842234 189.085255 
C 104.887726 188.039763 105.47516 186.621571 105.47516 185.143021 
C 105.47516 183.664472 104.887726 182.24628 103.842234 181.200788 
C 102.796741 180.155295 101.37855 179.567861 99.9 179.567861 
C 98.42145 179.567861 97.003259 180.155295 95.957766 181.200788 
C 94.912274 182.24628 94.32484 183.664472 94.32484 185.143021 
C 94.32484 186.621571 94.912274 188.039763 95.957766 189.085255 
C 97.003259 190.130748 98.42145 190.718182 99.9 190.718182 
z
" clip-path="url(#p148547121a)" style="fill: #fdbf6e"/>
   </g>
   <g id="patch_55">
    <path d="M 182.238436 127.537678 
C 183.716986 127.537678 185.135177 126.950244 186.18067 125.904751 
C 187.226162 124.859259 187.813596 123.441067 187.813596 121.962517 
C 187.813596 120.483968 187.226162 119.065776 186.18067 118.020284 
C 185.135177 116.974791 183.716986 116.387357 182.238436 116.387357 
C 180.759886 116.387357 179.341695 116.974791 178.296202 118.020284 
C 177.25071 119.065776 176.663276 120.483968 176.663276 121.962517 
C 176.663276 123.441067 177.25071 124.859259 178.296202 125.904751 
C 179.341695 126.950244 180.759886 127.537678 182.238436 127.537678 
z
" clip-path="url(#p148547121a)" style="fill: #fdbf6e"/>
   </g>
   <g id="patch_56">
    <path d="M 14.656979 105.47516 
C 16.135528 105.47516 17.55372 104.887726 18.599212 103.842234 
C 19.644705 102.796741 20.232139 101.37855 20.232139 99.9 
C 20.232139 98.42145 19.644705 97.003259 18.599212 95.957766 
C 17.55372 94.912274 16.135528 94.32484 14.656979 94.32484 
C 13.178429 94.32484 11.760237 94.912274 10.714745 95.957766 
C 9.669252 97.003259 9.081818 98.42145 9.081818 99.9 
C 9.081818 101.37855 9.669252 102.796741 10.714745 103.842234 
C 11.760237 104.887726 13.178429 105.47516 14.656979 105.47516 
z
" clip-path="url(#p148547121a)" style="fill: #fb9a98"/>
   </g>
   <g id="patch_57">
    <path d="M 132.521092 26.720878 
C 133.999642 26.720878 135.417833 26.133443 136.463326 25.087951 
C 137.508818 24.042458 138.096252 22.624267 138.096252 21.145717 
C 138.096252 19.667167 137.508818 18.248976 136.463326 17.203483 
C 135.417833 16.157991 133.999642 15.570557 132.521092 15.570557 
C 131.042542 15.570557 129.624351 16.157991 128.578858 17.203483 
C 127.533366 18.248976 126.945932 19.667167 126.945932 21.145717 
C 126.945932 22.624267 127.533366 24.042458 128.578858 25.087951 
C 129.624351 26.133443 131.042542 26.720878 132.521092 26.720878 
z
" clip-path="url(#p148547121a)" style="fill: #2078b4"/>
   </g>
   <g id="patch_58">
    <path d="M 32.272164 157.367824 
C 33.750714 157.367824 35.168905 156.78039 36.214398 155.734897 
C 37.25989 154.689405 37.847325 153.271213 37.847325 151.792664 
C 37.847325 150.314114 37.25989 148.895922 36.214398 147.85043 
C 35.168905 146.804937 33.750714 146.217503 32.272164 146.217503 
C 30.793614 146.217503 29.375423 146.804937 28.32993 147.85043 
C 27.284438 148.895922 26.697004 150.314114 26.697004 151.792664 
C 26.697004 153.271213 27.284438 154.689405 28.32993 155.734897 
C 29.375423 156.78039 30.793614 157.367824 32.272164 157.367824 
z
" clip-path="url(#p148547121a)" style="fill: #fb9a98"/>
   </g>
   <g id="patch_59">
    <path d="M 185.143021 105.47516 
C 186.621571 105.47516 188.039763 104.887726 189.085255 103.842234 
C 190.130748 102.796741 190.718182 101.37855 190.718182 99.9 
C 190.718182 98.42145 190.130748 97.003259 189.085255 95.957766 
C 188.039763 94.912274 186.621571 94.32484 185.143021 94.32484 
C 183.664472 94.32484 182.24628 94.912274 181.200788 95.957766 
C 180.155295 97.003259 179.567861 98.42145 179.567861 99.9 
C 179.567861 101.37855 180.155295 102.796741 181.200788 103.842234 
C 182.24628 104.887726 183.664472 105.47516 185.143021 105.47516 
z
" clip-path="url(#p148547121a)" style="fill: #a6cee3"/>
   </g>
   <g id="patch_60">
    <path d="M 167.527836 53.582497 
C 169.006386 53.582497 170.424577 52.995063 171.47007 51.94957 
C 172.515562 50.904078 173.102996 49.485886 173.102996 48.007336 
C 173.102996 46.528787 172.515562 45.110595 171.47007 44.065103 
C 170.424577 43.01961 169.006386 42.432176 167.527836 42.432176 
C 166.049286 42.432176 164.631095 43.01961 163.585602 44.065103 
C 162.54011 45.110595 161.952675 46.528787 161.952675 48.007336 
C 161.952675 49.485886 162.54011 50.904078 163.585602 51.94957 
C 164.631095 52.995063 166.049286 53.582497 167.527836 53.582497 
z
" clip-path="url(#p148547121a)" style="fill: #2078b4"/>
   </g>
   <g id="patch_61">
    <path d="M 17.561564 127.537678 
C 19.040114 127.537678 20.458305 126.950244 21.503798 125.904751 
C 22.54929 124.859259 23.136724 123.441067 23.136724 121.962517 
C 23.136724 120.483968 22.54929 119.065776 21.503798 118.020284 
C 20.458305 116.974791 19.040114 116.387357 17.561564 116.387357 
C 16.083014 116.387357 14.664823 116.974791 13.61933 118.020284 
C 12.573838 119.065776 11.986404 120.483968 11.986404 121.962517 
C 11.986404 123.441067 12.573838 124.859259 13.61933 125.904751 
C 14.664823 126.950244 16.083014 127.537678 17.561564 127.537678 
z
" clip-path="url(#p148547121a)" style="fill: #fb9a98"/>
   </g>
   <g id="patch_62">
    <path d="M 67.278908 184.229443 
C 68.757458 184.229443 70.175649 183.642009 71.221142 182.596517 
C 72.266634 181.551024 72.854068 180.132833 72.854068 178.654283 
C 72.854068 177.175733 72.266634 175.757542 71.221142 174.712049 
C 70.175649 173.666557 68.757458 173.079122 67.278908 173.079122 
C 65.800358 173.079122 64.382167 173.666557 63.336674 174.712049 
C 62.291182 175.757542 61.703748 177.175733 61.703748 178.654283 
C 61.703748 180.132833 62.291182 181.551024 63.336674 182.596517 
C 64.382167 183.642009 65.800358 184.229443 67.278908 184.229443 
z
" clip-path="url(#p148547121a)" style="fill: #fdbf6e"/>
   </g>
   <g id="patch_63">
    <path d="M 57.278489 179.297782 
C 58.757039 179.297782 60.17523 178.710348 61.220723 177.664856 
C 62.266216 176.619363 62.85365 175.201172 62.85365 173.722622 
C 62.85365 172.244072 62.266216 170.825881 61.220723 169.780388 
C 60.17523 168.734896 58.757039 168.147462 57.278489 168.147462 
C 55.799939 168.147462 54.381748 168.734896 53.336256 169.780388 
C 52.290763 170.825881 51.703329 172.244072 51.703329 173.722622 
C 51.703329 175.201172 52.290763 176.619363 53.336256 177.664856 
C 54.381748 178.710348 55.799939 179.297782 57.278489 179.297782 
z
" clip-path="url(#p148547121a)" style="fill: #fdbf6e"/>
   </g>
   <g id="patch_64">
    <path d="M 26.077378 62.85365 
C 27.555928 62.85365 28.974119 62.266216 30.019612 61.220723 
C 31.065104 60.17523 31.652538 58.757039 31.652538 57.278489 
C 31.652538 55.799939 31.065104 54.381748 30.019612 53.336256 
C 28.974119 52.290763 27.555928 51.703329 26.077378 51.703329 
C 24.598828 51.703329 23.180637 52.290763 22.135144 53.336256 
C 21.089652 54.381748 20.502218 55.799939 20.502218 57.278489 
C 20.502218 58.757039 21.089652 60.17523 22.135144 61.220723 
C 23.180637 62.266216 24.598828 62.85365 26.077378 62.85365 
z
" clip-path="url(#p148547121a)" style="fill: #31a02d"/>
   </g>
   <g id="patch_65">
    <path d="M 15.386244 116.601607 
C 16.864794 116.601607 18.282985 116.014173 19.328478 114.968681 
C 20.373971 113.923188 20.961405 112.504997 20.961405 111.026447 
C 20.961405 109.547897 20.373971 108.129706 19.328478 107.084213 
C 18.282985 106.038721 16.864794 105.451287 15.386244 105.451287 
C 13.907695 105.451287 12.489503 106.038721 11.444011 107.084213 
C 10.398518 108.129706 9.811084 109.547897 9.811084 111.026447 
C 9.811084 112.504997 10.398518 113.923188 11.444011 114.968681 
C 12.489503 116.014173 13.907695 116.601607 15.386244 116.601607 
z
" clip-path="url(#p148547121a)" style="fill: #fb9a98"/>
   </g>
   <g id="patch_66">
    <path d="M 21.145717 138.096252 
C 22.624267 138.096252 24.042458 137.508818 25.087951 136.463326 
C 26.133443 135.417833 26.720878 133.999642 26.720878 132.521092 
C 26.720878 131.042542 26.133443 129.624351 25.087951 128.578858 
C 24.042458 127.533366 22.624267 126.945932 21.145717 126.945932 
C 19.667167 126.945932 18.248976 127.533366 17.203483 128.578858 
C 16.157991 129.624351 15.570557 131.042542 15.570557 132.521092 
C 15.570557 133.999642 16.157991 135.417833 17.203483 136.463326 
C 18.248976 137.508818 19.667167 138.096252 21.145717 138.096252 
z
" clip-path="url(#p148547121a)" style="fill: #fb9a98"/>
   </g>
   <g id="patch_67">
    <path d="M 77.837483 187.813596 
C 79.316032 187.813596 80.734224 187.226162 81.779716 186.18067 
C 82.825209 185.135177 83.412643 183.716986 83.412643 182.238436 
C 83.412643 180.759886 82.825209 179.341695 81.779716 178.296202 
C 80.734224 177.25071 79.316032 176.663276 77.837483 176.663276 
C 76.358933 176.663276 74.940741 177.25071 73.895249 178.296202 
C 72.849756 179.341695 72.262322 180.759886 72.262322 182.238436 
C 72.262322 183.716986 72.849756 185.135177 73.895249 186.18067 
C 74.940741 187.226162 76.358933 187.813596 77.837483 187.813596 
z
" clip-path="url(#p148547121a)" style="fill: #fdbf6e"/>
   </g>
   <g id="patch_68">
    <path d="M 48.007336 173.102996 
C 49.485886 173.102996 50.904078 172.515562 51.94957 171.47007 
C 52.995063 170.424577 53.582497 169.006386 53.582497 167.527836 
C 53.582497 166.049286 52.995063 164.631095 51.94957 163.585602 
C 50.904078 162.54011 49.485886 161.952675 48.007336 161.952675 
C 46.528787 161.952675 45.110595 162.54011 44.065103 163.585602 
C 43.01961 164.631095 42.432176 166.049286 42.432176 167.527836 
C 42.432176 169.006386 43.01961 170.424577 44.065103 171.47007 
C 45.110595 172.515562 46.528787 173.102996 48.007336 173.102996 
z
" clip-path="url(#p148547121a)" style="fill: #fdbf6e"/>
   </g>
   <g id="patch_69">
    <path d="M 142.521511 179.297782 
C 144.000061 179.297782 145.418252 178.710348 146.463744 177.664856 
C 147.509237 176.619363 148.096671 175.201172 148.096671 173.722622 
C 148.096671 172.244072 147.509237 170.825881 146.463744 169.780388 
C 145.418252 168.734896 144.000061 168.147462 142.521511 168.147462 
C 141.042961 168.147462 139.62477 168.734896 138.579277 169.780388 
C 137.533784 170.825881 136.94635 172.244072 136.94635 173.722622 
C 136.94635 175.201172 137.533784 176.619363 138.579277 177.664856 
C 139.62477 178.710348 141.042961 179.297782 142.521511 179.297782 
z
" clip-path="url(#p148547121a)" style="fill: #fdbf6e"/>
   </g>
   <g id="patch_70">
    <path d="M 184.413756 116.601607 
C 185.892305 116.601607 187.310497 116.014173 188.355989 114.968681 
C 189.401482 113.923188 189.988916 112.504997 189.988916 111.026447 
C 189.988916 109.547897 189.401482 108.129706 188.355989 107.084213 
C 187.310497 106.038721 185.892305 105.451287 184.413756 105.451287 
C 182.935206 105.451287 181.517015 106.038721 180.471522 107.084213 
C 179.426029 108.129706 178.838595 109.547897 178.838595 111.026447 
C 178.838595 112.504997 179.426029 113.923188 180.471522 114.968681 
C 181.517015 116.014173 182.935206 116.601607 184.413756 116.601607 
z
" clip-path="url(#p148547121a)" style="fill: #fdbf6e"/>
   </g>
  </g>
 </g>
 <defs>
  <clipPath id="p148547121a">
   <rect x="0" y="-0" width="199.8" height="199.8"/>
  </clipPath>
 </defs>
</svg>
