<?xml version="1.0" encoding="utf-8" standalone="no"?>
<!DOCTYPE svg PUBLIC "-//W3C//DTD SVG 1.1//EN"
  "http://www.w3.org/Graphics/SVG/1.1/DTD/svg11.dtd">
<svg xmlns:xlink="http://www.w3.org/1999/xlink" width="199.941308pt" height="199.8pt" viewBox="0 0 199.941308 199.8" xmlns="http://www.w3.org/2000/svg" version="1.1">
 <metadata>
  <rdf:RDF xmlns:dc="http://purl.org/dc/elements/1.1/" xmlns:cc="http://creativecommons.org/ns#" xmlns:rdf="http://www.w3.org/1999/02/22-rdf-syntax-ns#">
   <cc:Work>
    <dc:type rdf:resource="http://purl.org/dc/dcmitype/StillImage"/>
    <dc:date>2023-06-27T19:10:20.107508</dc:date>
    <dc:format>image/svg+xml</dc:format>
    <dc:creator>
     <cc:Agent>
      <dc:title>Matplotlib v3.7.1, https://matplotlib.org/</dc:title>
     </cc:Agent>
    </dc:creator>
   </cc:Work>
  </rdf:RDF>
 </metadata>
 <defs>
  <style type="text/css">*{stroke-linejoin: round; stroke-linecap: butt}</style>
 </defs>
 <g id="figure_1">
  <g id="patch_1">
   <path d="M 0 199.8 
L 199.941308 199.8 
L 199.941308 0 
L 0 0 
L 0 199.8 
z
" style="fill: none"/>
  </g>
  <g id="axes_1">
   <g id="patch_2">
    <path d="M 0 199.8 
L 199.941308 199.8 
L 199.941308 -0 
L 0 -0 
L 0 199.8 
z
" style="fill: none"/>
   </g>
   <g id="patch_3">
    <path d="M 178.411831 61.061299 
Q 99.970654 99.9 153.033433 30.288188 
" clip-path="url(#p68458b8b52)" style="fill: none; opacity: 0.441948; stroke: #feeae1; stroke-width: 2; stroke-linejoin: miter"/>
   </g>
   <g id="patch_4">
    <path d="M 18.786566 67.179873 
Q 99.970654 99.9 171.563833 49.542483 
" clip-path="url(#p68458b8b52)" style="fill: none; opacity: 0.442665; stroke: #feeae1; stroke-width: 2; stroke-linejoin: miter"/>
   </g>
   <g id="patch_5">
    <path d="M 129.557198 182.277784 
Q 99.970654 99.9 186.474625 113.261359 
" clip-path="url(#p68458b8b52)" style="fill: none; opacity: 0.410686; stroke: #fff2eb; stroke-width: 2; stroke-linejoin: miter"/>
   </g>
   <g id="patch_6">
    <path d="M 129.557198 182.277784 
Q 99.970654 99.9 103.323284 187.365552 
" clip-path="url(#p68458b8b52)" style="fill: none; opacity: 0.816364; stroke: #f34c37; stroke-width: 2; stroke-linejoin: miter"/>
   </g>
   <g id="patch_7">
    <path d="M 135.776343 179.771243 
Q 99.970654 99.9 18.786566 67.179873 
" clip-path="url(#p68458b8b52)" style="fill: none; opacity: 0.423897; stroke: #ffeee7; stroke-width: 2; stroke-linejoin: miter"/>
   </g>
   <g id="patch_8">
    <path d="M 187.500437 99.9 
Q 99.970654 99.9 181.154742 67.179873 
" clip-path="url(#p68458b8b52)" style="fill: none; opacity: 0.473789; stroke: #fee3d7; stroke-width: 2; stroke-linejoin: miter"/>
   </g>
   <g id="patch_9">
    <path d="M 187.500437 99.9 
Q 99.970654 99.9 13.466683 113.261359 
" clip-path="url(#p68458b8b52)" style="fill: none; opacity: 0.558509; stroke: #fcc3ab; stroke-width: 2; stroke-linejoin: miter"/>
   </g>
   <g id="patch_10">
    <path d="M 187.500437 99.9 
Q 99.970654 99.9 167.498935 44.209837 
" clip-path="url(#p68458b8b52)" style="fill: none; stroke: #b11218; stroke-width: 2; stroke-linejoin: miter"/>
   </g>
   <g id="patch_11">
    <path d="M 12.440871 99.9 
Q 99.970654 99.9 21.529477 61.061299 
" clip-path="url(#p68458b8b52)" style="fill: none; opacity: 0.45607; stroke: #fee7dc; stroke-width: 2; stroke-linejoin: miter"/>
   </g>
   <g id="patch_12">
    <path d="M 70.38411 17.522216 
Q 99.970654 99.9 12.697701 93.199661 
" clip-path="url(#p68458b8b52)" style="fill: none; opacity: 0.412328; stroke: #fff2eb; stroke-width: 2; stroke-linejoin: miter"/>
   </g>
   <g id="patch_13">
    <path d="M 70.38411 17.522216 
Q 99.970654 99.9 96.618024 12.434448 
" clip-path="url(#p68458b8b52)" style="fill: none; opacity: 0.80956; stroke: #f44f39; stroke-width: 2; stroke-linejoin: miter"/>
   </g>
   <g id="patch_14">
    <path d="M 14.743305 79.956032 
Q 99.970654 99.9 12.440871 99.9 
" clip-path="url(#p68458b8b52)" style="fill: none; opacity: 0.468623; stroke: #fee5d8; stroke-width: 2; stroke-linejoin: miter"/>
   </g>
   <g id="patch_15">
    <path d="M 14.743305 79.956032 
Q 99.970654 99.9 16.520075 126.309538 
" clip-path="url(#p68458b8b52)" style="fill: none; opacity: 0.672355; stroke: #fc9070; stroke-width: 2; stroke-linejoin: miter"/>
   </g>
   <g id="patch_16">
    <path d="M 14.743305 79.956032 
Q 99.970654 99.9 13.466683 86.538641 
" clip-path="url(#p68458b8b52)" style="fill: none; opacity: 0.716242; stroke: #fb7c5c; stroke-width: 2; stroke-linejoin: miter"/>
   </g>
   <g id="patch_17">
    <path d="M 171.563833 150.257517 
Q 99.970654 99.9 83.305762 185.828716 
" clip-path="url(#p68458b8b52)" style="fill: none; opacity: 0.491645; stroke: #fedfd0; stroke-width: 2; stroke-linejoin: miter"/>
   </g>
   <g id="patch_18">
    <path d="M 36.903555 39.204004 
Q 99.970654 99.9 16.520075 126.309538 
" clip-path="url(#p68458b8b52)" style="fill: none; opacity: 0.69496; stroke: #fc8666; stroke-width: 2; stroke-linejoin: miter"/>
   </g>
   <g id="patch_19">
    <path d="M 83.305762 185.828716 
Q 99.970654 99.9 21.529477 61.061299 
" clip-path="url(#p68458b8b52)" style="fill: none; opacity: 0.474647; stroke: #fee3d7; stroke-width: 2; stroke-linejoin: miter"/>
   </g>
   <g id="patch_20">
    <path d="M 123.164427 184.300899 
Q 99.970654 99.9 46.907876 169.511812 
" clip-path="url(#p68458b8b52)" style="fill: none; opacity: 0.445496; stroke: #feeae0; stroke-width: 2; stroke-linejoin: miter"/>
   </g>
   <g id="patch_21">
    <path d="M 123.164427 184.300899 
Q 99.970654 99.9 116.635547 185.828716 
" clip-path="url(#p68458b8b52)" style="fill: none; opacity: 0.655413; stroke: #fc9879; stroke-width: 2; stroke-linejoin: miter"/>
   </g>
   <g id="patch_22">
    <path d="M 103.323284 187.365552 
Q 99.970654 99.9 147.549004 173.369473 
" clip-path="url(#p68458b8b52)" style="fill: none; opacity: 0.646729; stroke: #fc9c7d; stroke-width: 2; stroke-linejoin: miter"/>
   </g>
   <g id="patch_23">
    <path d="M 183.421233 126.309538 
Q 99.970654 99.9 186.474625 113.261359 
" clip-path="url(#p68458b8b52)" style="fill: none; opacity: 0.566978; stroke: #fcbfa7; stroke-width: 2; stroke-linejoin: miter"/>
   </g>
   <g id="patch_24">
    <path d="M 24.732713 144.629354 
Q 99.970654 99.9 153.033433 30.288188 
" clip-path="url(#p68458b8b52)" style="fill: none; opacity: 0.45341; stroke: #fee8dd; stroke-width: 2; stroke-linejoin: miter"/>
   </g>
   <g id="patch_25">
    <path d="M 185.198003 119.843968 
Q 99.970654 99.9 167.498935 44.209837 
" clip-path="url(#p68458b8b52)" style="fill: none; opacity: 0.48114; stroke: #fee1d4; stroke-width: 2; stroke-linejoin: miter"/>
   </g>
   <g id="patch_26">
    <path d="M 185.198003 119.843968 
Q 99.970654 99.9 183.421233 126.309538 
" clip-path="url(#p68458b8b52)" style="fill: none; opacity: 0.693987; stroke: #fc8666; stroke-width: 2; stroke-linejoin: miter"/>
   </g>
   <g id="patch_27">
    <path d="M 181.154742 67.179873 
Q 99.970654 99.9 167.498935 44.209837 
" clip-path="url(#p68458b8b52)" style="fill: none; opacity: 0.443571; stroke: #feeae1; stroke-width: 2; stroke-linejoin: miter"/>
   </g>
   <g id="patch_28">
    <path d="M 13.466683 86.538641 
Q 99.970654 99.9 24.732713 55.170646 
" clip-path="url(#p68458b8b52)" style="fill: none; opacity: 0.404112; stroke: #fff3ed; stroke-width: 2; stroke-linejoin: miter"/>
   </g>
   <g id="patch_29">
    <path d="M 21.529477 138.738701 
Q 99.970654 99.9 70.38411 182.277784 
" clip-path="url(#p68458b8b52)" style="fill: none; opacity: 0.618169; stroke: #fca98c; stroke-width: 2; stroke-linejoin: miter"/>
   </g>
   <g id="patch_30">
    <path d="M 153.033433 30.288188 
Q 99.970654 99.9 181.154742 67.179873 
" clip-path="url(#p68458b8b52)" style="fill: none; opacity: 0.408441; stroke: #fff2ec; stroke-width: 2; stroke-linejoin: miter"/>
   </g>
   <g id="patch_31">
    <path d="M 12.697701 106.600339 
Q 99.970654 99.9 21.529477 138.738701 
" clip-path="url(#p68458b8b52)" style="fill: none; opacity: 0.453343; stroke: #fee8dd; stroke-width: 2; stroke-linejoin: miter"/>
   </g>
   <g id="patch_32">
    <path d="M 41.73484 34.554359 
Q 99.970654 99.9 21.529477 138.738701 
" clip-path="url(#p68458b8b52)" style="fill: none; opacity: 0.536366; stroke: #fdccb8; stroke-width: 2; stroke-linejoin: miter"/>
   </g>
   <g id="patch_33">
    <path d="M 70.38411 182.277784 
Q 99.970654 99.9 21.529477 61.061299 
" clip-path="url(#p68458b8b52)" style="fill: none; opacity: 0.4; stroke: #fff4ef; stroke-width: 2; stroke-linejoin: miter"/>
   </g>
   <g id="patch_34">
    <path d="M 64.164965 179.771243 
Q 99.970654 99.9 46.907876 169.511812 
" clip-path="url(#p68458b8b52)" style="fill: none; opacity: 0.493859; stroke: #fedecf; stroke-width: 2; stroke-linejoin: miter"/>
   </g>
   <g id="patch_35">
    <path d="M 58.155942 176.795987 
Q 99.970654 99.9 70.38411 17.522216 
" clip-path="url(#p68458b8b52)" style="fill: none; opacity: 0.477389; stroke: #fee3d6; stroke-width: 2; stroke-linejoin: miter"/>
   </g>
   <g id="patch_36">
    <path d="M 58.155942 176.795987 
Q 99.970654 99.9 147.549004 173.369473 
" clip-path="url(#p68458b8b52)" style="fill: none; opacity: 0.577239; stroke: #fcbba1; stroke-width: 2; stroke-linejoin: miter"/>
   </g>
   <g id="patch_37">
    <path d="M 58.155942 176.795987 
Q 99.970654 99.9 18.786566 132.620127 
" clip-path="url(#p68458b8b52)" style="fill: none; opacity: 0.838329; stroke: #f0402f; stroke-width: 2; stroke-linejoin: miter"/>
   </g>
   <g id="patch_38">
    <path d="M 187.243607 109.952969 
C 188.132735 109.952969 188.985566 109.599715 189.614275 108.971007 
C 190.242983 108.342299 190.596237 107.489467 190.596237 106.600339 
C 190.596237 105.711212 190.242983 104.85838 189.614275 104.229672 
C 188.985566 103.600964 188.132735 103.24771 187.243607 103.24771 
C 186.354479 103.24771 185.501648 103.600964 184.87294 104.229672 
C 184.244231 104.85838 183.890977 105.711212 183.890977 106.600339 
C 183.890977 107.489467 184.244231 108.342299 184.87294 108.971007 
C 185.501648 109.599715 186.354479 109.952969 187.243607 109.952969 
z
" clip-path="url(#p68458b8b52)" style="fill: #fdbf6e"/>
   </g>
   <g id="patch_39">
    <path d="M 178.411831 64.413929 
C 179.300959 64.413929 180.15379 64.060675 180.782498 63.431966 
C 181.411206 62.803258 181.764461 61.950427 181.764461 61.061299 
C 181.764461 60.172171 181.411206 59.31934 180.782498 58.690632 
C 180.15379 58.061923 179.300959 57.708669 178.411831 57.708669 
C 177.522703 57.708669 176.669872 58.061923 176.041163 58.690632 
C 175.412455 59.31934 175.059201 60.172171 175.059201 61.061299 
C 175.059201 61.950427 175.412455 62.803258 176.041163 63.431966 
C 176.669872 64.060675 177.522703 64.413929 178.411831 64.413929 
z
" clip-path="url(#p68458b8b52)" style="fill: #a6cee3"/>
   </g>
   <g id="patch_40">
    <path d="M 46.907876 33.640818 
C 47.797003 33.640818 48.649835 33.287563 49.278543 32.658855 
C 49.907251 32.030147 50.260505 31.177316 50.260505 30.288188 
C 50.260505 29.39906 49.907251 28.546229 49.278543 27.91752 
C 48.649835 27.288812 47.797003 26.935558 46.907876 26.935558 
C 46.018748 26.935558 45.165916 27.288812 44.537208 27.91752 
C 43.9085 28.546229 43.555246 29.39906 43.555246 30.288188 
C 43.555246 31.177316 43.9085 32.030147 44.537208 32.658855 
C 45.165916 33.287563 46.018748 33.640818 46.907876 33.640818 
z
" clip-path="url(#p68458b8b52)" style="fill: #2078b4"/>
   </g>
   <g id="patch_41">
    <path d="M 18.786566 70.532503 
C 19.675694 70.532503 20.528525 70.179249 21.157233 69.55054 
C 21.785942 68.921832 22.139196 68.069001 22.139196 67.179873 
C 22.139196 66.290745 21.785942 65.437914 21.157233 64.809205 
C 20.528525 64.180497 19.675694 63.827243 18.786566 63.827243 
C 17.897438 63.827243 17.044607 64.180497 16.415899 64.809205 
C 15.78719 65.437914 15.433936 66.290745 15.433936 67.179873 
C 15.433936 68.069001 15.78719 68.921832 16.415899 69.55054 
C 17.044607 70.179249 17.897438 70.532503 18.786566 70.532503 
z
" clip-path="url(#p68458b8b52)" style="fill: #31a02d"/>
   </g>
   <g id="patch_42">
    <path d="M 129.557198 185.630414 
C 130.446326 185.630414 131.299157 185.27716 131.927865 184.648451 
C 132.556574 184.019743 132.909828 183.166912 132.909828 182.277784 
C 132.909828 181.388656 132.556574 180.535825 131.927865 179.907117 
C 131.299157 179.278408 130.446326 178.925154 129.557198 178.925154 
C 128.66807 178.925154 127.815239 179.278408 127.186531 179.907117 
C 126.557822 180.535825 126.204568 181.388656 126.204568 182.277784 
C 126.204568 183.166912 126.557822 184.019743 127.186531 184.648451 
C 127.815239 185.27716 128.66807 185.630414 129.557198 185.630414 
z
" clip-path="url(#p68458b8b52)" style="fill: #fdbf6e"/>
   </g>
   <g id="patch_43">
    <path d="M 24.732713 58.523276 
C 25.621841 58.523276 26.474672 58.170022 27.10338 57.541313 
C 27.732089 56.912605 28.085343 56.059774 28.085343 55.170646 
C 28.085343 54.281518 27.732089 53.428687 27.10338 52.799979 
C 26.474672 52.17127 25.621841 51.818016 24.732713 51.818016 
C 23.843585 51.818016 22.990754 52.17127 22.362046 52.799979 
C 21.733337 53.428687 21.380083 54.281518 21.380083 55.170646 
C 21.380083 56.059774 21.733337 56.912605 22.362046 57.541313 
C 22.990754 58.170022 23.843585 58.523276 24.732713 58.523276 
z
" clip-path="url(#p68458b8b52)" style="fill: #31a02d"/>
   </g>
   <g id="patch_44">
    <path d="M 14.743305 123.196598 
C 15.632433 123.196598 16.485264 122.843344 17.113972 122.214636 
C 17.742681 121.585927 18.095935 120.733096 18.095935 119.843968 
C 18.095935 118.95484 17.742681 118.102009 17.113972 117.473301 
C 16.485264 116.844592 15.632433 116.491338 14.743305 116.491338 
C 13.854177 116.491338 13.001346 116.844592 12.372638 117.473301 
C 11.743929 118.102009 11.390675 118.95484 11.390675 119.843968 
C 11.390675 120.733096 11.743929 121.585927 12.372638 122.214636 
C 13.001346 122.843344 13.854177 123.196598 14.743305 123.196598 
z
" clip-path="url(#p68458b8b52)" style="fill: #fb9a98"/>
   </g>
   <g id="patch_45">
    <path d="M 135.776343 183.123873 
C 136.665471 183.123873 137.518302 182.770619 138.14701 182.141911 
C 138.775719 181.513202 139.128973 180.660371 139.128973 179.771243 
C 139.128973 178.882116 138.775719 178.029284 138.14701 177.400576 
C 137.518302 176.771868 136.665471 176.418613 135.776343 176.418613 
C 134.887215 176.418613 134.034384 176.771868 133.405676 177.400576 
C 132.776967 178.029284 132.423713 178.882116 132.423713 179.771243 
C 132.423713 180.660371 132.776967 181.513202 133.405676 182.141911 
C 134.034384 182.770619 134.887215 183.123873 135.776343 183.123873 
z
" clip-path="url(#p68458b8b52)" style="fill: #fdbf6e"/>
   </g>
   <g id="patch_46">
    <path d="M 187.500437 103.25263 
C 188.389565 103.25263 189.242396 102.899376 189.871104 102.270667 
C 190.499813 101.641959 190.853067 100.789128 190.853067 99.9 
C 190.853067 99.010872 190.499813 98.158041 189.871104 97.529333 
C 189.242396 96.900624 188.389565 96.54737 187.500437 96.54737 
C 186.611309 96.54737 185.758478 96.900624 185.12977 97.529333 
C 184.501061 98.158041 184.147807 99.010872 184.147807 99.9 
C 184.147807 100.789128 184.501061 101.641959 185.12977 102.270667 
C 185.758478 102.899376 186.611309 103.25263 187.500437 103.25263 
z
" clip-path="url(#p68458b8b52)" style="fill: #a6cee3"/>
   </g>
   <g id="patch_47">
    <path d="M 12.440871 103.25263 
C 13.329999 103.25263 14.18283 102.899376 14.811539 102.270667 
C 15.440247 101.641959 15.793501 100.789128 15.793501 99.9 
C 15.793501 99.010872 15.440247 98.158041 14.811539 97.529333 
C 14.18283 96.900624 13.329999 96.54737 12.440871 96.54737 
C 11.551743 96.54737 10.698912 96.900624 10.070204 97.529333 
C 9.441496 98.158041 9.088241 99.010872 9.088241 99.9 
C 9.088241 100.789128 9.441496 101.641959 10.070204 102.270667 
C 10.698912 102.899376 11.551743 103.25263 12.440871 103.25263 
z
" clip-path="url(#p68458b8b52)" style="fill: #31a02d"/>
   </g>
   <g id="patch_48">
    <path d="M 70.38411 20.874846 
C 71.273238 20.874846 72.126069 20.521592 72.754778 19.892883 
C 73.383486 19.264175 73.73674 18.411344 73.73674 17.522216 
C 73.73674 16.633088 73.383486 15.780257 72.754778 15.151549 
C 72.126069 14.52284 71.273238 14.169586 70.38411 14.169586 
C 69.494982 14.169586 68.642151 14.52284 68.013443 15.151549 
C 67.384734 15.780257 67.03148 16.633088 67.03148 17.522216 
C 67.03148 18.411344 67.384734 19.264175 68.013443 19.892883 
C 68.642151 20.521592 69.494982 20.874846 70.38411 20.874846 
z
" clip-path="url(#p68458b8b52)" style="fill: #2078b4"/>
   </g>
   <g id="patch_49">
    <path d="M 14.743305 83.308662 
C 15.632433 83.308662 16.485264 82.955408 17.113972 82.326699 
C 17.742681 81.697991 18.095935 80.84516 18.095935 79.956032 
C 18.095935 79.066904 17.742681 78.214073 17.113972 77.585364 
C 16.485264 76.956656 15.632433 76.603402 14.743305 76.603402 
C 13.854177 76.603402 13.001346 76.956656 12.372638 77.585364 
C 11.743929 78.214073 11.390675 79.066904 11.390675 79.956032 
C 11.390675 80.84516 11.743929 81.697991 12.372638 82.326699 
C 13.001346 82.955408 13.854177 83.308662 14.743305 83.308662 
z
" clip-path="url(#p68458b8b52)" style="fill: #31a02d"/>
   </g>
   <g id="patch_50">
    <path d="M 96.618024 15.787078 
C 97.507152 15.787078 98.359983 15.433824 98.988692 14.805116 
C 99.6174 14.176407 99.970654 13.323576 99.970654 12.434448 
C 99.970654 11.54532 99.6174 10.692489 98.988692 10.063781 
C 98.359983 9.435072 97.507152 9.081818 96.618024 9.081818 
C 95.728896 9.081818 94.876065 9.435072 94.247357 10.063781 
C 93.618648 10.692489 93.265394 11.54532 93.265394 12.434448 
C 93.265394 13.323576 93.618648 14.176407 94.247357 14.805116 
C 94.876065 15.433824 95.728896 15.787078 96.618024 15.787078 
z
" clip-path="url(#p68458b8b52)" style="fill: #2078b4"/>
   </g>
   <g id="patch_51">
    <path d="M 141.785366 180.148617 
C 142.674494 180.148617 143.527325 179.795362 144.156033 179.166654 
C 144.784742 178.537946 145.137996 177.685114 145.137996 176.795987 
C 145.137996 175.906859 144.784742 175.054028 144.156033 174.425319 
C 143.527325 173.796611 142.674494 173.443357 141.785366 173.443357 
C 140.896238 173.443357 140.043407 173.796611 139.414699 174.425319 
C 138.78599 175.054028 138.432736 175.906859 138.432736 176.795987 
C 138.432736 177.685114 138.78599 178.537946 139.414699 179.166654 
C 140.043407 179.795362 140.896238 180.148617 141.785366 180.148617 
z
" clip-path="url(#p68458b8b52)" style="fill: #fdbf6e"/>
   </g>
   <g id="patch_52">
    <path d="M 147.549004 176.722103 
C 148.438132 176.722103 149.290963 176.368849 149.919671 175.740141 
C 150.548379 175.111433 150.901634 174.258601 150.901634 173.369473 
C 150.901634 172.480346 150.548379 171.627514 149.919671 170.998806 
C 149.290963 170.370098 148.438132 170.016844 147.549004 170.016844 
C 146.659876 170.016844 145.807045 170.370098 145.178336 170.998806 
C 144.549628 171.627514 144.196374 172.480346 144.196374 173.369473 
C 144.196374 174.258601 144.549628 175.111433 145.178336 175.740141 
C 145.807045 176.368849 146.659876 176.722103 147.549004 176.722103 
z
" clip-path="url(#p68458b8b52)" style="fill: #fdbf6e"/>
   </g>
   <g id="patch_53">
    <path d="M 64.164965 23.381387 
C 65.054093 23.381387 65.906924 23.028132 66.535633 22.399424 
C 67.164341 21.770716 67.517595 20.917884 67.517595 20.028757 
C 67.517595 19.139629 67.164341 18.286798 66.535633 17.658089 
C 65.906924 17.029381 65.054093 16.676127 64.164965 16.676127 
C 63.275837 16.676127 62.423006 17.029381 61.794298 17.658089 
C 61.165589 18.286798 60.812335 19.139629 60.812335 20.028757 
C 60.812335 20.917884 61.165589 21.770716 61.794298 22.399424 
C 62.423006 23.028132 63.275837 23.381387 64.164965 23.381387 
z
" clip-path="url(#p68458b8b52)" style="fill: #2078b4"/>
   </g>
   <g id="patch_54">
    <path d="M 58.155942 26.356643 
C 59.04507 26.356643 59.897901 26.003389 60.52661 25.374681 
C 61.155318 24.745972 61.508572 23.893141 61.508572 23.004013 
C 61.508572 22.114886 61.155318 21.262054 60.52661 20.633346 
C 59.897901 20.004638 59.04507 19.651383 58.155942 19.651383 
C 57.266814 19.651383 56.413983 20.004638 55.785275 20.633346 
C 55.156566 21.262054 54.803312 22.114886 54.803312 23.004013 
C 54.803312 23.893141 55.156566 24.745972 55.785275 25.374681 
C 56.413983 26.003389 57.266814 26.356643 58.155942 26.356643 
z
" clip-path="url(#p68458b8b52)" style="fill: #2078b4"/>
   </g>
   <g id="patch_55">
    <path d="M 52.392304 29.783156 
C 53.281432 29.783156 54.134264 29.429902 54.762972 28.801194 
C 55.39168 28.172486 55.744934 27.319654 55.744934 26.430527 
C 55.744934 25.541399 55.39168 24.688567 54.762972 24.059859 
C 54.134264 23.431151 53.281432 23.077897 52.392304 23.077897 
C 51.503177 23.077897 50.650345 23.431151 50.021637 24.059859 
C 49.392929 24.688567 49.039675 25.541399 49.039675 26.430527 
C 49.039675 27.319654 49.392929 28.172486 50.021637 28.801194 
C 50.650345 29.429902 51.503177 29.783156 52.392304 29.783156 
z
" clip-path="url(#p68458b8b52)" style="fill: #2078b4"/>
   </g>
   <g id="patch_56">
    <path d="M 76.776881 18.851731 
C 77.666009 18.851731 78.51884 18.498477 79.147548 17.869768 
C 79.776256 17.24106 80.129511 16.388229 80.129511 15.499101 
C 80.129511 14.609973 79.776256 13.757142 79.147548 13.128434 
C 78.51884 12.499725 77.666009 12.146471 76.776881 12.146471 
C 75.887753 12.146471 75.034922 12.499725 74.406213 13.128434 
C 73.777505 13.757142 73.424251 14.609973 73.424251 15.499101 
C 73.424251 16.388229 73.777505 17.24106 74.406213 17.869768 
C 75.034922 18.498477 75.887753 18.851731 76.776881 18.851731 
z
" clip-path="url(#p68458b8b52)" style="fill: #2078b4"/>
   </g>
   <g id="patch_57">
    <path d="M 16.520075 76.843091 
C 17.409203 76.843091 18.262034 76.489837 18.890742 75.861129 
C 19.519451 75.232421 19.872705 74.379589 19.872705 73.490462 
C 19.872705 72.601334 19.519451 71.748502 18.890742 71.119794 
C 18.262034 70.491086 17.409203 70.137832 16.520075 70.137832 
C 15.630947 70.137832 14.778116 70.491086 14.149408 71.119794 
C 13.520699 71.748502 13.167445 72.601334 13.167445 73.490462 
C 13.167445 74.379589 13.520699 75.232421 14.149408 75.861129 
C 14.778116 76.489837 15.630947 76.843091 16.520075 76.843091 
z
" clip-path="url(#p68458b8b52)" style="fill: #31a02d"/>
   </g>
   <g id="patch_58">
    <path d="M 32.442374 158.942793 
C 33.331502 158.942793 34.184333 158.589539 34.813041 157.96083 
C 35.441749 157.332122 35.795004 156.479291 35.795004 155.590163 
C 35.795004 154.701035 35.441749 153.848204 34.813041 153.219495 
C 34.184333 152.590787 33.331502 152.237533 32.442374 152.237533 
C 31.553246 152.237533 30.700415 152.590787 30.071706 153.219495 
C 29.442998 153.848204 29.089744 154.701035 29.089744 155.590163 
C 29.089744 156.479291 29.442998 157.332122 30.071706 157.96083 
C 30.700415 158.589539 31.553246 158.942793 32.442374 158.942793 
z
" clip-path="url(#p68458b8b52)" style="fill: #fb9a98"/>
   </g>
   <g id="patch_59">
    <path d="M 183.421233 76.843091 
C 184.310361 76.843091 185.163192 76.489837 185.791901 75.861129 
C 186.420609 75.232421 186.773863 74.379589 186.773863 73.490462 
C 186.773863 72.601334 186.420609 71.748502 185.791901 71.119794 
C 185.163192 70.491086 184.310361 70.137832 183.421233 70.137832 
C 182.532105 70.137832 181.679274 70.491086 181.050566 71.119794 
C 180.421858 71.748502 180.068603 72.601334 180.068603 73.490462 
C 180.068603 74.379589 180.421858 75.232421 181.050566 75.861129 
C 181.679274 76.489837 182.532105 76.843091 183.421233 76.843091 
z
" clip-path="url(#p68458b8b52)" style="fill: #a6cee3"/>
   </g>
   <g id="patch_60">
    <path d="M 163.037753 42.556634 
C 163.926881 42.556634 164.779712 42.203379 165.40842 41.574671 
C 166.037128 40.945963 166.390383 40.093132 166.390383 39.204004 
C 166.390383 38.314876 166.037128 37.462045 165.40842 36.833336 
C 164.779712 36.204628 163.926881 35.851374 163.037753 35.851374 
C 162.148625 35.851374 161.295794 36.204628 160.667085 36.833336 
C 160.038377 37.462045 159.685123 38.314876 159.685123 39.204004 
C 159.685123 40.093132 160.038377 40.945963 160.667085 41.574671 
C 161.295794 42.203379 162.148625 42.556634 163.037753 42.556634 
z
" clip-path="url(#p68458b8b52)" style="fill: #2078b4"/>
   </g>
   <g id="patch_61">
    <path d="M 28.377475 153.610147 
C 29.266603 153.610147 30.119434 153.256893 30.748142 152.628185 
C 31.37685 151.999476 31.730105 151.146645 31.730105 150.257517 
C 31.730105 149.36839 31.37685 148.515558 30.748142 147.88685 
C 30.119434 147.258142 29.266603 146.904887 28.377475 146.904887 
C 27.488347 146.904887 26.635516 147.258142 26.006807 147.88685 
C 25.378099 148.515558 25.024845 149.36839 25.024845 150.257517 
C 25.024845 151.146645 25.378099 151.999476 26.006807 152.628185 
C 26.635516 153.256893 27.488347 153.610147 28.377475 153.610147 
z
" clip-path="url(#p68458b8b52)" style="fill: #fb9a98"/>
   </g>
   <g id="patch_62">
    <path d="M 187.243607 96.55229 
C 188.132735 96.55229 188.985566 96.199036 189.614275 95.570328 
C 190.242983 94.94162 190.596237 94.088788 190.596237 93.199661 
C 190.596237 92.310533 190.242983 91.457701 189.614275 90.828993 
C 188.985566 90.200285 188.132735 89.847031 187.243607 89.847031 
C 186.354479 89.847031 185.501648 90.200285 184.87294 90.828993 
C 184.244231 91.457701 183.890977 92.310533 183.890977 93.199661 
C 183.890977 94.088788 184.244231 94.94162 184.87294 95.570328 
C 185.501648 96.199036 186.354479 96.55229 187.243607 96.55229 
z
" clip-path="url(#p68458b8b52)" style="fill: #a6cee3"/>
   </g>
   <g id="patch_63">
    <path d="M 116.635547 17.323914 
C 117.524674 17.323914 118.377506 16.97066 119.006214 16.341951 
C 119.634922 15.713243 119.988177 14.860412 119.988177 13.971284 
C 119.988177 13.082156 119.634922 12.229325 119.006214 11.600617 
C 118.377506 10.971908 117.524674 10.618654 116.635547 10.618654 
C 115.746419 10.618654 114.893588 10.971908 114.264879 11.600617 
C 113.636171 12.229325 113.282917 13.082156 113.282917 13.971284 
C 113.282917 14.860412 113.636171 15.713243 114.264879 16.341951 
C 114.893588 16.97066 115.746419 17.323914 116.635547 17.323914 
z
" clip-path="url(#p68458b8b52)" style="fill: #2078b4"/>
   </g>
   <g id="patch_64">
    <path d="M 129.557198 20.874846 
C 130.446326 20.874846 131.299157 20.521592 131.927865 19.892883 
C 132.556574 19.264175 132.909828 18.411344 132.909828 17.522216 
C 132.909828 16.633088 132.556574 15.780257 131.927865 15.151549 
C 131.299157 14.52284 130.446326 14.169586 129.557198 14.169586 
C 128.66807 14.169586 127.815239 14.52284 127.186531 15.151549 
C 126.557822 15.780257 126.204568 16.633088 126.204568 17.522216 
C 126.204568 18.411344 126.557822 19.264175 127.186531 19.892883 
C 127.815239 20.521592 128.66807 20.874846 129.557198 20.874846 
z
" clip-path="url(#p68458b8b52)" style="fill: #2078b4"/>
   </g>
   <g id="patch_65">
    <path d="M 18.786566 135.972757 
C 19.675694 135.972757 20.528525 135.619503 21.157233 134.990795 
C 21.785942 134.362086 22.139196 133.509255 22.139196 132.620127 
C 22.139196 131.730999 21.785942 130.878168 21.157233 130.24946 
C 20.528525 129.620751 19.675694 129.267497 18.786566 129.267497 
C 17.897438 129.267497 17.044607 129.620751 16.415899 130.24946 
C 15.78719 130.878168 15.433936 131.730999 15.433936 132.620127 
C 15.433936 133.509255 15.78719 134.362086 16.415899 134.990795 
C 17.044607 135.619503 17.897438 135.972757 18.786566 135.972757 
z
" clip-path="url(#p68458b8b52)" style="fill: #fb9a98"/>
   </g>
   <g id="patch_66">
    <path d="M 153.033433 172.864442 
C 153.922561 172.864442 154.775392 172.511188 155.4041 171.88248 
C 156.032808 171.253771 156.386063 170.40094 156.386063 169.511812 
C 156.386063 168.622684 156.032808 167.769853 155.4041 167.141145 
C 154.775392 166.512437 153.922561 166.159182 153.033433 166.159182 
C 152.144305 166.159182 151.291474 166.512437 150.662765 167.141145 
C 150.034057 167.769853 149.680803 168.622684 149.680803 169.511812 
C 149.680803 170.40094 150.034057 171.253771 150.662765 171.88248 
C 151.291474 172.511188 152.144305 172.864442 153.033433 172.864442 
z
" clip-path="url(#p68458b8b52)" style="fill: #fdbf6e"/>
   </g>
   <g id="patch_67">
    <path d="M 16.520075 129.662168 
C 17.409203 129.662168 18.262034 129.308914 18.890742 128.680206 
C 19.519451 128.051498 19.872705 127.198666 19.872705 126.309538 
C 19.872705 125.420411 19.519451 124.567579 18.890742 123.938871 
C 18.262034 123.310163 17.409203 122.956909 16.520075 122.956909 
C 15.630947 122.956909 14.778116 123.310163 14.149408 123.938871 
C 13.520699 124.567579 13.167445 125.420411 13.167445 126.309538 
C 13.167445 127.198666 13.520699 128.051498 14.149408 128.680206 
C 14.778116 129.308914 15.630947 129.662168 16.520075 129.662168 
z
" clip-path="url(#p68458b8b52)" style="fill: #fb9a98"/>
   </g>
   <g id="patch_68">
    <path d="M 141.785366 26.356643 
C 142.674494 26.356643 143.527325 26.003389 144.156033 25.374681 
C 144.784742 24.745972 145.137996 23.893141 145.137996 23.004013 
C 145.137996 22.114886 144.784742 21.262054 144.156033 20.633346 
C 143.527325 20.004638 142.674494 19.651383 141.785366 19.651383 
C 140.896238 19.651383 140.043407 20.004638 139.414699 20.633346 
C 138.78599 21.262054 138.432736 22.114886 138.432736 23.004013 
C 138.432736 23.893141 138.78599 24.745972 139.414699 25.374681 
C 140.043407 26.003389 140.896238 26.356643 141.785366 26.356643 
z
" clip-path="url(#p68458b8b52)" style="fill: #2078b4"/>
   </g>
   <g id="patch_69">
    <path d="M 158.206468 168.598271 
C 159.095596 168.598271 159.948427 168.245017 160.577136 167.616309 
C 161.205844 166.9876 161.559098 166.134769 161.559098 165.245641 
C 161.559098 164.356514 161.205844 163.503682 160.577136 162.874974 
C 159.948427 162.246266 159.095596 161.893011 158.206468 161.893011 
C 157.31734 161.893011 156.464509 162.246266 155.835801 162.874974 
C 155.207092 163.503682 154.853838 164.356514 154.853838 165.245641 
C 154.853838 166.134769 155.207092 166.9876 155.835801 167.616309 
C 156.464509 168.245017 157.31734 168.598271 158.206468 168.598271 
z
" clip-path="url(#p68458b8b52)" style="fill: #fdbf6e"/>
   </g>
   <g id="patch_70">
    <path d="M 171.563833 153.610147 
C 172.452961 153.610147 173.305793 153.256893 173.934501 152.628185 
C 174.563209 151.999476 174.916463 151.146645 174.916463 150.257517 
C 174.916463 149.36839 174.563209 148.515558 173.934501 147.88685 
C 173.305793 147.258142 172.452961 146.904887 171.563833 146.904887 
C 170.674706 146.904887 169.821874 147.258142 169.193166 147.88685 
C 168.564458 148.515558 168.211204 149.36839 168.211204 150.257517 
C 168.211204 151.146645 168.564458 151.999476 169.193166 152.628185 
C 169.821874 153.256893 170.674706 153.610147 171.563833 153.610147 
z
" clip-path="url(#p68458b8b52)" style="fill: #fdbf6e"/>
   </g>
   <g id="patch_71">
    <path d="M 36.903555 42.556634 
C 37.792683 42.556634 38.645515 42.203379 39.274223 41.574671 
C 39.902931 40.945963 40.256185 40.093132 40.256185 39.204004 
C 40.256185 38.314876 39.902931 37.462045 39.274223 36.833336 
C 38.645515 36.204628 37.792683 35.851374 36.903555 35.851374 
C 36.014428 35.851374 35.161596 36.204628 34.532888 36.833336 
C 33.90418 37.462045 33.550926 38.314876 33.550926 39.204004 
C 33.550926 40.093132 33.90418 40.945963 34.532888 41.574671 
C 35.161596 42.203379 36.014428 42.556634 36.903555 42.556634 
z
" clip-path="url(#p68458b8b52)" style="fill: #b2df8a"/>
   </g>
   <g id="patch_72">
    <path d="M 83.305762 189.181346 
C 84.19489 189.181346 85.047721 188.828092 85.676429 188.199383 
C 86.305137 187.570675 86.658392 186.717844 86.658392 185.828716 
C 86.658392 184.939588 86.305137 184.086757 85.676429 183.458049 
C 85.047721 182.82934 84.19489 182.476086 83.305762 182.476086 
C 82.416634 182.476086 81.563803 182.82934 80.935094 183.458049 
C 80.306386 184.086757 79.953132 184.939588 79.953132 185.828716 
C 79.953132 186.717844 80.306386 187.570675 80.935094 188.199383 
C 81.563803 188.828092 82.416634 189.181346 83.305762 189.181346 
z
" clip-path="url(#p68458b8b52)" style="fill: #e21a1b"/>
   </g>
   <g id="patch_73">
    <path d="M 123.164427 187.653529 
C 124.053555 187.653529 124.906387 187.300275 125.535095 186.671566 
C 126.163803 186.042858 126.517057 185.190027 126.517057 184.300899 
C 126.517057 183.411771 126.163803 182.55894 125.535095 181.930232 
C 124.906387 181.301523 124.053555 180.948269 123.164427 180.948269 
C 122.2753 180.948269 121.422468 181.301523 120.79376 181.930232 
C 120.165052 182.55894 119.811798 183.411771 119.811798 184.300899 
C 119.811798 185.190027 120.165052 186.042858 120.79376 186.671566 
C 121.422468 187.300275 122.2753 187.653529 123.164427 187.653529 
z
" clip-path="url(#p68458b8b52)" style="fill: #e21a1b"/>
   </g>
   <g id="patch_74">
    <path d="M 116.635547 189.181346 
C 117.524674 189.181346 118.377506 188.828092 119.006214 188.199383 
C 119.634922 187.570675 119.988177 186.717844 119.988177 185.828716 
C 119.988177 184.939588 119.634922 184.086757 119.006214 183.458049 
C 118.377506 182.82934 117.524674 182.476086 116.635547 182.476086 
C 115.746419 182.476086 114.893588 182.82934 114.264879 183.458049 
C 113.636171 184.086757 113.282917 184.939588 113.282917 185.828716 
C 113.282917 186.717844 113.636171 187.570675 114.264879 188.199383 
C 114.893588 188.828092 115.746419 189.181346 116.635547 189.181346 
z
" clip-path="url(#p68458b8b52)" style="fill: #e21a1b"/>
   </g>
   <g id="patch_75">
    <path d="M 110.008869 190.204899 
C 110.897997 190.204899 111.750828 189.851645 112.379537 189.222937 
C 113.008245 188.594228 113.361499 187.741397 113.361499 186.852269 
C 113.361499 185.963141 113.008245 185.11031 112.379537 184.481602 
C 111.750828 183.852893 110.897997 183.499639 110.008869 183.499639 
C 109.119742 183.499639 108.26691 183.852893 107.638202 184.481602 
C 107.009494 185.11031 106.656239 185.963141 106.656239 186.852269 
C 106.656239 187.741397 107.009494 188.594228 107.638202 189.222937 
C 108.26691 189.851645 109.119742 190.204899 110.008869 190.204899 
z
" clip-path="url(#p68458b8b52)" style="fill: #e21a1b"/>
   </g>
   <g id="patch_76">
    <path d="M 103.323284 190.718182 
C 104.212412 190.718182 105.065243 190.364928 105.693951 189.736219 
C 106.32266 189.107511 106.675914 188.25468 106.675914 187.365552 
C 106.675914 186.476424 106.32266 185.623593 105.693951 184.994884 
C 105.065243 184.366176 104.212412 184.012922 103.323284 184.012922 
C 102.434156 184.012922 101.581325 184.366176 100.952617 184.994884 
C 100.323908 185.623593 99.970654 186.476424 99.970654 187.365552 
C 99.970654 188.25468 100.323908 189.107511 100.952617 189.736219 
C 101.581325 190.364928 102.434156 190.718182 103.323284 190.718182 
z
" clip-path="url(#p68458b8b52)" style="fill: #e21a1b"/>
   </g>
   <g id="patch_77">
    <path d="M 96.618024 190.718182 
C 97.507152 190.718182 98.359983 190.364928 98.988692 189.736219 
C 99.6174 189.107511 99.970654 188.25468 99.970654 187.365552 
C 99.970654 186.476424 99.6174 185.623593 98.988692 184.994884 
C 98.359983 184.366176 97.507152 184.012922 96.618024 184.012922 
C 95.728896 184.012922 94.876065 184.366176 94.247357 184.994884 
C 93.618648 185.623593 93.265394 186.476424 93.265394 187.365552 
C 93.265394 188.25468 93.618648 189.107511 94.247357 189.736219 
C 94.876065 190.364928 95.728896 190.718182 96.618024 190.718182 
z
" clip-path="url(#p68458b8b52)" style="fill: #e21a1b"/>
   </g>
   <g id="patch_78">
    <path d="M 41.73484 168.598271 
C 42.623968 168.598271 43.476799 168.245017 44.105507 167.616309 
C 44.734216 166.9876 45.08747 166.134769 45.08747 165.245641 
C 45.08747 164.356514 44.734216 163.503682 44.105507 162.874974 
C 43.476799 162.246266 42.623968 161.893011 41.73484 161.893011 
C 40.845712 161.893011 39.992881 162.246266 39.364173 162.874974 
C 38.735464 163.503682 38.38221 164.356514 38.38221 165.245641 
C 38.38221 166.134769 38.735464 166.9876 39.364173 167.616309 
C 39.992881 168.245017 40.845712 168.598271 41.73484 168.598271 
z
" clip-path="url(#p68458b8b52)" style="fill: #e21a1b"/>
   </g>
   <g id="patch_79">
    <path d="M 181.154742 135.972757 
C 182.04387 135.972757 182.896701 135.619503 183.52541 134.990795 
C 184.154118 134.362086 184.507372 133.509255 184.507372 132.620127 
C 184.507372 131.730999 184.154118 130.878168 183.52541 130.24946 
C 182.896701 129.620751 182.04387 129.267497 181.154742 129.267497 
C 180.265614 129.267497 179.412783 129.620751 178.784075 130.24946 
C 178.155367 130.878168 177.802112 131.730999 177.802112 132.620127 
C 177.802112 133.509255 178.155367 134.362086 178.784075 134.990795 
C 179.412783 135.619503 180.265614 135.972757 181.154742 135.972757 
z
" clip-path="url(#p68458b8b52)" style="fill: #fdbf6e"/>
   </g>
   <g id="patch_80">
    <path d="M 175.208595 58.523276 
C 176.097723 58.523276 176.950554 58.170022 177.579263 57.541313 
C 178.207971 56.912605 178.561225 56.059774 178.561225 55.170646 
C 178.561225 54.281518 178.207971 53.428687 177.579263 52.799979 
C 176.950554 52.17127 176.097723 51.818016 175.208595 51.818016 
C 174.319467 51.818016 173.466636 52.17127 172.837928 52.799979 
C 172.209219 53.428687 171.855965 54.281518 171.855965 55.170646 
C 171.855965 56.059774 172.209219 56.912605 172.837928 57.541313 
C 173.466636 58.170022 174.319467 58.523276 175.208595 58.523276 
z
" clip-path="url(#p68458b8b52)" style="fill: #a6cee3"/>
   </g>
   <g id="patch_81">
    <path d="M 171.563833 52.895113 
C 172.452961 52.895113 173.305793 52.541858 173.934501 51.91315 
C 174.563209 51.284442 174.916463 50.43161 174.916463 49.542483 
C 174.916463 48.653355 174.563209 47.800524 173.934501 47.171815 
C 173.305793 46.543107 172.452961 46.189853 171.563833 46.189853 
C 170.674706 46.189853 169.821874 46.543107 169.193166 47.171815 
C 168.564458 47.800524 168.211204 48.653355 168.211204 49.542483 
C 168.211204 50.43161 168.564458 51.284442 169.193166 51.91315 
C 169.821874 52.541858 170.674706 52.895113 171.563833 52.895113 
z
" clip-path="url(#p68458b8b52)" style="fill: #2078b4"/>
   </g>
   <g id="patch_82">
    <path d="M 32.442374 47.562467 
C 33.331502 47.562467 34.184333 47.209213 34.813041 46.580505 
C 35.441749 45.951796 35.795004 45.098965 35.795004 44.209837 
C 35.795004 43.320709 35.441749 42.467878 34.813041 41.83917 
C 34.184333 41.210461 33.331502 40.857207 32.442374 40.857207 
C 31.553246 40.857207 30.700415 41.210461 30.071706 41.83917 
C 29.442998 42.467878 29.089744 43.320709 29.089744 44.209837 
C 29.089744 45.098965 29.442998 45.951796 30.071706 46.580505 
C 30.700415 47.209213 31.553246 47.562467 32.442374 47.562467 
z
" clip-path="url(#p68458b8b52)" style="fill: #31a02d"/>
   </g>
   <g id="patch_83">
    <path d="M 183.421233 129.662168 
C 184.310361 129.662168 185.163192 129.308914 185.791901 128.680206 
C 186.420609 128.051498 186.773863 127.198666 186.773863 126.309538 
C 186.773863 125.420411 186.420609 124.567579 185.791901 123.938871 
C 185.163192 123.310163 184.310361 122.956909 183.421233 122.956909 
C 182.532105 122.956909 181.679274 123.310163 181.050566 123.938871 
C 180.421858 124.567579 180.068603 125.420411 180.068603 126.309538 
C 180.068603 127.198666 180.421858 128.051498 181.050566 128.680206 
C 181.679274 129.308914 182.532105 129.662168 183.421233 129.662168 
z
" clip-path="url(#p68458b8b52)" style="fill: #fdbf6e"/>
   </g>
   <g id="patch_84">
    <path d="M 21.529477 64.413929 
C 22.418605 64.413929 23.271437 64.060675 23.900145 63.431966 
C 24.528853 62.803258 24.882107 61.950427 24.882107 61.061299 
C 24.882107 60.172171 24.528853 59.31934 23.900145 58.690632 
C 23.271437 58.061923 22.418605 57.708669 21.529477 57.708669 
C 20.64035 57.708669 19.787518 58.061923 19.15881 58.690632 
C 18.530102 59.31934 18.176848 60.172171 18.176848 61.061299 
C 18.176848 61.950427 18.530102 62.803258 19.15881 63.431966 
C 19.787518 64.060675 20.64035 64.413929 21.529477 64.413929 
z
" clip-path="url(#p68458b8b52)" style="fill: #31a02d"/>
   </g>
   <g id="patch_85">
    <path d="M 24.732713 147.981984 
C 25.621841 147.981984 26.474672 147.62873 27.10338 147.000021 
C 27.732089 146.371313 28.085343 145.518482 28.085343 144.629354 
C 28.085343 143.740226 27.732089 142.887395 27.10338 142.258687 
C 26.474672 141.629978 25.621841 141.276724 24.732713 141.276724 
C 23.843585 141.276724 22.990754 141.629978 22.362046 142.258687 
C 21.733337 142.887395 21.380083 143.740226 21.380083 144.629354 
C 21.380083 145.518482 21.733337 146.371313 22.362046 147.000021 
C 22.990754 147.62873 23.843585 147.981984 24.732713 147.981984 
z
" clip-path="url(#p68458b8b52)" style="fill: #fb9a98"/>
   </g>
   <g id="patch_86">
    <path d="M 185.198003 123.196598 
C 186.087131 123.196598 186.939962 122.843344 187.568671 122.214636 
C 188.197379 121.585927 188.550633 120.733096 188.550633 119.843968 
C 188.550633 118.95484 188.197379 118.102009 187.568671 117.473301 
C 186.939962 116.844592 186.087131 116.491338 185.198003 116.491338 
C 184.308875 116.491338 183.456044 116.844592 182.827336 117.473301 
C 182.198627 118.102009 181.845373 118.95484 181.845373 119.843968 
C 181.845373 120.733096 182.198627 121.585927 182.827336 122.214636 
C 183.456044 122.843344 184.308875 123.196598 185.198003 123.196598 
z
" clip-path="url(#p68458b8b52)" style="fill: #fdbf6e"/>
   </g>
   <g id="patch_87">
    <path d="M 181.154742 70.532503 
C 182.04387 70.532503 182.896701 70.179249 183.52541 69.55054 
C 184.154118 68.921832 184.507372 68.069001 184.507372 67.179873 
C 184.507372 66.290745 184.154118 65.437914 183.52541 64.809205 
C 182.896701 64.180497 182.04387 63.827243 181.154742 63.827243 
C 180.265614 63.827243 179.412783 64.180497 178.784075 64.809205 
C 178.155367 65.437914 177.802112 66.290745 177.802112 67.179873 
C 177.802112 68.069001 178.155367 68.921832 178.784075 69.55054 
C 179.412783 70.179249 180.265614 70.532503 181.154742 70.532503 
z
" clip-path="url(#p68458b8b52)" style="fill: #a6cee3"/>
   </g>
   <g id="patch_88">
    <path d="M 12.697701 96.55229 
C 13.586829 96.55229 14.43966 96.199036 15.068368 95.570328 
C 15.697077 94.94162 16.050331 94.088788 16.050331 93.199661 
C 16.050331 92.310533 15.697077 91.457701 15.068368 90.828993 
C 14.43966 90.200285 13.586829 89.847031 12.697701 89.847031 
C 11.808573 89.847031 10.955742 90.200285 10.327034 90.828993 
C 9.698325 91.457701 9.345071 92.310533 9.345071 93.199661 
C 9.345071 94.088788 9.698325 94.94162 10.327034 95.570328 
C 10.955742 96.199036 11.808573 96.55229 12.697701 96.55229 
z
" clip-path="url(#p68458b8b52)" style="fill: #31a02d"/>
   </g>
   <g id="patch_89">
    <path d="M 110.008869 16.300361 
C 110.897997 16.300361 111.750828 15.947107 112.379537 15.318398 
C 113.008245 14.68969 113.361499 13.836859 113.361499 12.947731 
C 113.361499 12.058603 113.008245 11.205772 112.379537 10.577063 
C 111.750828 9.948355 110.897997 9.595101 110.008869 9.595101 
C 109.119742 9.595101 108.26691 9.948355 107.638202 10.577063 
C 107.009494 11.205772 106.656239 12.058603 106.656239 12.947731 
C 106.656239 13.836859 107.009494 14.68969 107.638202 15.318398 
C 108.26691 15.947107 109.119742 16.300361 110.008869 16.300361 
z
" clip-path="url(#p68458b8b52)" style="fill: #2078b4"/>
   </g>
   <g id="patch_90">
    <path d="M 13.466683 89.891271 
C 14.355811 89.891271 15.208642 89.538017 15.837351 88.909309 
C 16.466059 88.2806 16.819313 87.427769 16.819313 86.538641 
C 16.819313 85.649513 16.466059 84.796682 15.837351 84.167974 
C 15.208642 83.539266 14.355811 83.186011 13.466683 83.186011 
C 12.577555 83.186011 11.724724 83.539266 11.096016 84.167974 
C 10.467307 84.796682 10.114053 85.649513 10.114053 86.538641 
C 10.114053 87.427769 10.467307 88.2806 11.096016 88.909309 
C 11.724724 89.538017 12.577555 89.891271 13.466683 89.891271 
z
" clip-path="url(#p68458b8b52)" style="fill: #31a02d"/>
   </g>
   <g id="patch_91">
    <path d="M 83.305762 17.323914 
C 84.19489 17.323914 85.047721 16.97066 85.676429 16.341951 
C 86.305137 15.713243 86.658392 14.860412 86.658392 13.971284 
C 86.658392 13.082156 86.305137 12.229325 85.676429 11.600617 
C 85.047721 10.971908 84.19489 10.618654 83.305762 10.618654 
C 82.416634 10.618654 81.563803 10.971908 80.935094 11.600617 
C 80.306386 12.229325 79.953132 13.082156 79.953132 13.971284 
C 79.953132 14.860412 80.306386 15.713243 80.935094 16.341951 
C 81.563803 16.97066 82.416634 17.323914 83.305762 17.323914 
z
" clip-path="url(#p68458b8b52)" style="fill: #2078b4"/>
   </g>
   <g id="patch_92">
    <path d="M 167.498935 158.942793 
C 168.388062 158.942793 169.240894 158.589539 169.869602 157.96083 
C 170.49831 157.332122 170.851564 156.479291 170.851564 155.590163 
C 170.851564 154.701035 170.49831 153.848204 169.869602 153.219495 
C 169.240894 152.590787 168.388062 152.237533 167.498935 152.237533 
C 166.609807 152.237533 165.756975 152.590787 165.128267 153.219495 
C 164.499559 153.848204 164.146305 154.701035 164.146305 155.590163 
C 164.146305 156.479291 164.499559 157.332122 165.128267 157.96083 
C 165.756975 158.589539 166.609807 158.942793 167.498935 158.942793 
z
" clip-path="url(#p68458b8b52)" style="fill: #fdbf6e"/>
   </g>
   <g id="patch_93">
    <path d="M 175.208595 147.981984 
C 176.097723 147.981984 176.950554 147.62873 177.579263 147.000021 
C 178.207971 146.371313 178.561225 145.518482 178.561225 144.629354 
C 178.561225 143.740226 178.207971 142.887395 177.579263 142.258687 
C 176.950554 141.629978 176.097723 141.276724 175.208595 141.276724 
C 174.319467 141.276724 173.466636 141.629978 172.837928 142.258687 
C 172.209219 142.887395 171.855965 143.740226 171.855965 144.629354 
C 171.855965 145.518482 172.209219 146.371313 172.837928 147.000021 
C 173.466636 147.62873 174.319467 147.981984 175.208595 147.981984 
z
" clip-path="url(#p68458b8b52)" style="fill: #fdbf6e"/>
   </g>
   <g id="patch_94">
    <path d="M 135.776343 23.381387 
C 136.665471 23.381387 137.518302 23.028132 138.14701 22.399424 
C 138.775719 21.770716 139.128973 20.917884 139.128973 20.028757 
C 139.128973 19.139629 138.775719 18.286798 138.14701 17.658089 
C 137.518302 17.029381 136.665471 16.676127 135.776343 16.676127 
C 134.887215 16.676127 134.034384 17.029381 133.405676 17.658089 
C 132.776967 18.286798 132.423713 19.139629 132.423713 20.028757 
C 132.423713 20.917884 132.776967 21.770716 133.405676 22.399424 
C 134.034384 23.028132 134.887215 23.381387 135.776343 23.381387 
z
" clip-path="url(#p68458b8b52)" style="fill: #2078b4"/>
   </g>
   <g id="patch_95">
    <path d="M 123.164427 18.851731 
C 124.053555 18.851731 124.906387 18.498477 125.535095 17.869768 
C 126.163803 17.24106 126.517057 16.388229 126.517057 15.499101 
C 126.517057 14.609973 126.163803 13.757142 125.535095 13.128434 
C 124.906387 12.499725 124.053555 12.146471 123.164427 12.146471 
C 122.2753 12.146471 121.422468 12.499725 120.79376 13.128434 
C 120.165052 13.757142 119.811798 14.609973 119.811798 15.499101 
C 119.811798 16.388229 120.165052 17.24106 120.79376 17.869768 
C 121.422468 18.498477 122.2753 18.851731 123.164427 18.851731 
z
" clip-path="url(#p68458b8b52)" style="fill: #2078b4"/>
   </g>
   <g id="patch_96">
    <path d="M 89.932439 16.300361 
C 90.821567 16.300361 91.674398 15.947107 92.303106 15.318398 
C 92.931815 14.68969 93.285069 13.836859 93.285069 12.947731 
C 93.285069 12.058603 92.931815 11.205772 92.303106 10.577063 
C 91.674398 9.948355 90.821567 9.595101 89.932439 9.595101 
C 89.043311 9.595101 88.19048 9.948355 87.561771 10.577063 
C 86.933063 11.205772 86.579809 12.058603 86.579809 12.947731 
C 86.579809 13.836859 86.933063 14.68969 87.561771 15.318398 
C 88.19048 15.947107 89.043311 16.300361 89.932439 16.300361 
z
" clip-path="url(#p68458b8b52)" style="fill: #2078b4"/>
   </g>
   <g id="patch_97">
    <path d="M 103.323284 15.787078 
C 104.212412 15.787078 105.065243 15.433824 105.693951 14.805116 
C 106.32266 14.176407 106.675914 13.323576 106.675914 12.434448 
C 106.675914 11.54532 106.32266 10.692489 105.693951 10.063781 
C 105.065243 9.435072 104.212412 9.081818 103.323284 9.081818 
C 102.434156 9.081818 101.581325 9.435072 100.952617 10.063781 
C 100.323908 10.692489 99.970654 11.54532 99.970654 12.434448 
C 99.970654 13.323576 100.323908 14.176407 100.952617 14.805116 
C 101.581325 15.433824 102.434156 15.787078 103.323284 15.787078 
z
" clip-path="url(#p68458b8b52)" style="fill: #2078b4"/>
   </g>
   <g id="patch_98">
    <path d="M 28.377475 52.895113 
C 29.266603 52.895113 30.119434 52.541858 30.748142 51.91315 
C 31.37685 51.284442 31.730105 50.43161 31.730105 49.542483 
C 31.730105 48.653355 31.37685 47.800524 30.748142 47.171815 
C 30.119434 46.543107 29.266603 46.189853 28.377475 46.189853 
C 27.488347 46.189853 26.635516 46.543107 26.006807 47.171815 
C 25.378099 47.800524 25.024845 48.653355 25.024845 49.542483 
C 25.024845 50.43161 25.378099 51.284442 26.006807 51.91315 
C 26.635516 52.541858 27.488347 52.895113 28.377475 52.895113 
z
" clip-path="url(#p68458b8b52)" style="fill: #31a02d"/>
   </g>
   <g id="patch_99">
    <path d="M 21.529477 142.091331 
C 22.418605 142.091331 23.271437 141.738077 23.900145 141.109368 
C 24.528853 140.48066 24.882107 139.627829 24.882107 138.738701 
C 24.882107 137.849573 24.528853 136.996742 23.900145 136.368034 
C 23.271437 135.739325 22.418605 135.386071 21.529477 135.386071 
C 20.64035 135.386071 19.787518 135.739325 19.15881 136.368034 
C 18.530102 136.996742 18.176848 137.849573 18.176848 138.738701 
C 18.176848 139.627829 18.530102 140.48066 19.15881 141.109368 
C 19.787518 141.738077 20.64035 142.091331 21.529477 142.091331 
z
" clip-path="url(#p68458b8b52)" style="fill: #fb9a98"/>
   </g>
   <g id="patch_100">
    <path d="M 185.198003 83.308662 
C 186.087131 83.308662 186.939962 82.955408 187.568671 82.326699 
C 188.197379 81.697991 188.550633 80.84516 188.550633 79.956032 
C 188.550633 79.066904 188.197379 78.214073 187.568671 77.585364 
C 186.939962 76.956656 186.087131 76.603402 185.198003 76.603402 
C 184.308875 76.603402 183.456044 76.956656 182.827336 77.585364 
C 182.198627 78.214073 181.845373 79.066904 181.845373 79.956032 
C 181.845373 80.84516 182.198627 81.697991 182.827336 82.326699 
C 183.456044 82.955408 184.308875 83.308662 185.198003 83.308662 
z
" clip-path="url(#p68458b8b52)" style="fill: #a6cee3"/>
   </g>
   <g id="patch_101">
    <path d="M 167.498935 47.562467 
C 168.388062 47.562467 169.240894 47.209213 169.869602 46.580505 
C 170.49831 45.951796 170.851564 45.098965 170.851564 44.209837 
C 170.851564 43.320709 170.49831 42.467878 169.869602 41.83917 
C 169.240894 41.210461 168.388062 40.857207 167.498935 40.857207 
C 166.609807 40.857207 165.756975 41.210461 165.128267 41.83917 
C 164.499559 42.467878 164.146305 43.320709 164.146305 44.209837 
C 164.146305 45.098965 164.499559 45.951796 165.128267 46.580505 
C 165.756975 47.209213 166.609807 47.562467 167.498935 47.562467 
z
" clip-path="url(#p68458b8b52)" style="fill: #2078b4"/>
   </g>
   <g id="patch_102">
    <path d="M 13.466683 116.613989 
C 14.355811 116.613989 15.208642 116.260734 15.837351 115.632026 
C 16.466059 115.003318 16.819313 114.150487 16.819313 113.261359 
C 16.819313 112.372231 16.466059 111.5194 15.837351 110.890691 
C 15.208642 110.261983 14.355811 109.908729 13.466683 109.908729 
C 12.577555 109.908729 11.724724 110.261983 11.096016 110.890691 
C 10.467307 111.5194 10.114053 112.372231 10.114053 113.261359 
C 10.114053 114.150487 10.467307 115.003318 11.096016 115.632026 
C 11.724724 116.260734 12.577555 116.613989 13.466683 116.613989 
z
" clip-path="url(#p68458b8b52)" style="fill: #fb9a98"/>
   </g>
   <g id="patch_103">
    <path d="M 186.474625 89.891271 
C 187.363753 89.891271 188.216584 89.538017 188.845292 88.909309 
C 189.474001 88.2806 189.827255 87.427769 189.827255 86.538641 
C 189.827255 85.649513 189.474001 84.796682 188.845292 84.167974 
C 188.216584 83.539266 187.363753 83.186011 186.474625 83.186011 
C 185.585497 83.186011 184.732666 83.539266 184.103958 84.167974 
C 183.475249 84.796682 183.121995 85.649513 183.121995 86.538641 
C 183.121995 87.427769 183.475249 88.2806 184.103958 88.909309 
C 184.732666 89.538017 185.585497 89.891271 186.474625 89.891271 
z
" clip-path="url(#p68458b8b52)" style="fill: #a6cee3"/>
   </g>
   <g id="patch_104">
    <path d="M 158.206468 37.906989 
C 159.095596 37.906989 159.948427 37.553734 160.577136 36.925026 
C 161.205844 36.296318 161.559098 35.443486 161.559098 34.554359 
C 161.559098 33.665231 161.205844 32.8124 160.577136 32.183691 
C 159.948427 31.554983 159.095596 31.201729 158.206468 31.201729 
C 157.31734 31.201729 156.464509 31.554983 155.835801 32.183691 
C 155.207092 32.8124 154.853838 33.665231 154.853838 34.554359 
C 154.853838 35.443486 155.207092 36.296318 155.835801 36.925026 
C 156.464509 37.553734 157.31734 37.906989 158.206468 37.906989 
z
" clip-path="url(#p68458b8b52)" style="fill: #2078b4"/>
   </g>
   <g id="patch_105">
    <path d="M 153.033433 33.640818 
C 153.922561 33.640818 154.775392 33.287563 155.4041 32.658855 
C 156.032808 32.030147 156.386063 31.177316 156.386063 30.288188 
C 156.386063 29.39906 156.032808 28.546229 155.4041 27.91752 
C 154.775392 27.288812 153.922561 26.935558 153.033433 26.935558 
C 152.144305 26.935558 151.291474 27.288812 150.662765 27.91752 
C 150.034057 28.546229 149.680803 29.39906 149.680803 30.288188 
C 149.680803 31.177316 150.034057 32.030147 150.662765 32.658855 
C 151.291474 33.287563 152.144305 33.640818 153.033433 33.640818 
z
" clip-path="url(#p68458b8b52)" style="fill: #2078b4"/>
   </g>
   <g id="patch_106">
    <path d="M 36.903555 163.948626 
C 37.792683 163.948626 38.645515 163.595372 39.274223 162.966664 
C 39.902931 162.337955 40.256185 161.485124 40.256185 160.595996 
C 40.256185 159.706868 39.902931 158.854037 39.274223 158.225329 
C 38.645515 157.596621 37.792683 157.243366 36.903555 157.243366 
C 36.014428 157.243366 35.161596 157.596621 34.532888 158.225329 
C 33.90418 158.854037 33.550926 159.706868 33.550926 160.595996 
C 33.550926 161.485124 33.90418 162.337955 34.532888 162.966664 
C 35.161596 163.595372 36.014428 163.948626 36.903555 163.948626 
z
" clip-path="url(#p68458b8b52)" style="fill: #fb9a98"/>
   </g>
   <g id="patch_107">
    <path d="M 178.411831 142.091331 
C 179.300959 142.091331 180.15379 141.738077 180.782498 141.109368 
C 181.411206 140.48066 181.764461 139.627829 181.764461 138.738701 
C 181.764461 137.849573 181.411206 136.996742 180.782498 136.368034 
C 180.15379 135.739325 179.300959 135.386071 178.411831 135.386071 
C 177.522703 135.386071 176.669872 135.739325 176.041163 136.368034 
C 175.412455 136.996742 175.059201 137.849573 175.059201 138.738701 
C 175.059201 139.627829 175.412455 140.48066 176.041163 141.109368 
C 176.669872 141.738077 177.522703 142.091331 178.411831 142.091331 
z
" clip-path="url(#p68458b8b52)" style="fill: #fdbf6e"/>
   </g>
   <g id="patch_108">
    <path d="M 12.697701 109.952969 
C 13.586829 109.952969 14.43966 109.599715 15.068368 108.971007 
C 15.697077 108.342299 16.050331 107.489467 16.050331 106.600339 
C 16.050331 105.711212 15.697077 104.85838 15.068368 104.229672 
C 14.43966 103.600964 13.586829 103.24771 12.697701 103.24771 
C 11.808573 103.24771 10.955742 103.600964 10.327034 104.229672 
C 9.698325 104.85838 9.345071 105.711212 9.345071 106.600339 
C 9.345071 107.489467 9.698325 108.342299 10.327034 108.971007 
C 10.955742 109.599715 11.808573 109.952969 12.697701 109.952969 
z
" clip-path="url(#p68458b8b52)" style="fill: #fb9a98"/>
   </g>
   <g id="patch_109">
    <path d="M 147.549004 29.783156 
C 148.438132 29.783156 149.290963 29.429902 149.919671 28.801194 
C 150.548379 28.172486 150.901634 27.319654 150.901634 26.430527 
C 150.901634 25.541399 150.548379 24.688567 149.919671 24.059859 
C 149.290963 23.431151 148.438132 23.077897 147.549004 23.077897 
C 146.659876 23.077897 145.807045 23.431151 145.178336 24.059859 
C 144.549628 24.688567 144.196374 25.541399 144.196374 26.430527 
C 144.196374 27.319654 144.549628 28.172486 145.178336 28.801194 
C 145.807045 29.429902 146.659876 29.783156 147.549004 29.783156 
z
" clip-path="url(#p68458b8b52)" style="fill: #2078b4"/>
   </g>
   <g id="patch_110">
    <path d="M 186.474625 116.613989 
C 187.363753 116.613989 188.216584 116.260734 188.845292 115.632026 
C 189.474001 115.003318 189.827255 114.150487 189.827255 113.261359 
C 189.827255 112.372231 189.474001 111.5194 188.845292 110.890691 
C 188.216584 110.261983 187.363753 109.908729 186.474625 109.908729 
C 185.585497 109.908729 184.732666 110.261983 184.103958 110.890691 
C 183.475249 111.5194 183.121995 112.372231 183.121995 113.261359 
C 183.121995 114.150487 183.475249 115.003318 184.103958 115.632026 
C 184.732666 116.260734 185.585497 116.613989 186.474625 116.613989 
z
" clip-path="url(#p68458b8b52)" style="fill: #fdbf6e"/>
   </g>
   <g id="patch_111">
    <path d="M 163.037753 163.948626 
C 163.926881 163.948626 164.779712 163.595372 165.40842 162.966664 
C 166.037128 162.337955 166.390383 161.485124 166.390383 160.595996 
C 166.390383 159.706868 166.037128 158.854037 165.40842 158.225329 
C 164.779712 157.596621 163.926881 157.243366 163.037753 157.243366 
C 162.148625 157.243366 161.295794 157.596621 160.667085 158.225329 
C 160.038377 158.854037 159.685123 159.706868 159.685123 160.595996 
C 159.685123 161.485124 160.038377 162.337955 160.667085 162.966664 
C 161.295794 163.595372 162.148625 163.948626 163.037753 163.948626 
z
" clip-path="url(#p68458b8b52)" style="fill: #fdbf6e"/>
   </g>
   <g id="patch_112">
    <path d="M 41.73484 37.906989 
C 42.623968 37.906989 43.476799 37.553734 44.105507 36.925026 
C 44.734216 36.296318 45.08747 35.443486 45.08747 34.554359 
C 45.08747 33.665231 44.734216 32.8124 44.105507 32.183691 
C 43.476799 31.554983 42.623968 31.201729 41.73484 31.201729 
C 40.845712 31.201729 39.992881 31.554983 39.364173 32.183691 
C 38.735464 32.8124 38.38221 33.665231 38.38221 34.554359 
C 38.38221 35.443486 38.735464 36.296318 39.364173 36.925026 
C 39.992881 37.553734 40.845712 37.906989 41.73484 37.906989 
z
" clip-path="url(#p68458b8b52)" style="fill: #b2df8a"/>
   </g>
   <g id="patch_113">
    <path d="M 70.38411 185.630414 
C 71.273238 185.630414 72.126069 185.27716 72.754778 184.648451 
C 73.383486 184.019743 73.73674 183.166912 73.73674 182.277784 
C 73.73674 181.388656 73.383486 180.535825 72.754778 179.907117 
C 72.126069 179.278408 71.273238 178.925154 70.38411 178.925154 
C 69.494982 178.925154 68.642151 179.278408 68.013443 179.907117 
C 67.384734 180.535825 67.03148 181.388656 67.03148 182.277784 
C 67.03148 183.166912 67.384734 184.019743 68.013443 184.648451 
C 68.642151 185.27716 69.494982 185.630414 70.38411 185.630414 
z
" clip-path="url(#p68458b8b52)" style="fill: #e21a1b"/>
   </g>
   <g id="patch_114">
    <path d="M 64.164965 183.123873 
C 65.054093 183.123873 65.906924 182.770619 66.535633 182.141911 
C 67.164341 181.513202 67.517595 180.660371 67.517595 179.771243 
C 67.517595 178.882116 67.164341 178.029284 66.535633 177.400576 
C 65.906924 176.771868 65.054093 176.418613 64.164965 176.418613 
C 63.275837 176.418613 62.423006 176.771868 61.794298 177.400576 
C 61.165589 178.029284 60.812335 178.882116 60.812335 179.771243 
C 60.812335 180.660371 61.165589 181.513202 61.794298 182.141911 
C 62.423006 182.770619 63.275837 183.123873 64.164965 183.123873 
z
" clip-path="url(#p68458b8b52)" style="fill: #e21a1b"/>
   </g>
   <g id="patch_115">
    <path d="M 46.907876 172.864442 
C 47.797003 172.864442 48.649835 172.511188 49.278543 171.88248 
C 49.907251 171.253771 50.260505 170.40094 50.260505 169.511812 
C 50.260505 168.622684 49.907251 167.769853 49.278543 167.141145 
C 48.649835 166.512437 47.797003 166.159182 46.907876 166.159182 
C 46.018748 166.159182 45.165916 166.512437 44.537208 167.141145 
C 43.9085 167.769853 43.555246 168.622684 43.555246 169.511812 
C 43.555246 170.40094 43.9085 171.253771 44.537208 171.88248 
C 45.165916 172.511188 46.018748 172.864442 46.907876 172.864442 
z
" clip-path="url(#p68458b8b52)" style="fill: #e21a1b"/>
   </g>
   <g id="patch_116">
    <path d="M 52.392304 176.722103 
C 53.281432 176.722103 54.134264 176.368849 54.762972 175.740141 
C 55.39168 175.111433 55.744934 174.258601 55.744934 173.369473 
C 55.744934 172.480346 55.39168 171.627514 54.762972 170.998806 
C 54.134264 170.370098 53.281432 170.016844 52.392304 170.016844 
C 51.503177 170.016844 50.650345 170.370098 50.021637 170.998806 
C 49.392929 171.627514 49.039675 172.480346 49.039675 173.369473 
C 49.039675 174.258601 49.392929 175.111433 50.021637 175.740141 
C 50.650345 176.368849 51.503177 176.722103 52.392304 176.722103 
z
" clip-path="url(#p68458b8b52)" style="fill: #e21a1b"/>
   </g>
   <g id="patch_117">
    <path d="M 58.155942 180.148617 
C 59.04507 180.148617 59.897901 179.795362 60.52661 179.166654 
C 61.155318 178.537946 61.508572 177.685114 61.508572 176.795987 
C 61.508572 175.906859 61.155318 175.054028 60.52661 174.425319 
C 59.897901 173.796611 59.04507 173.443357 58.155942 173.443357 
C 57.266814 173.443357 56.413983 173.796611 55.785275 174.425319 
C 55.156566 175.054028 54.803312 175.906859 54.803312 176.795987 
C 54.803312 177.685114 55.156566 178.537946 55.785275 179.166654 
C 56.413983 179.795362 57.266814 180.148617 58.155942 180.148617 
z
" clip-path="url(#p68458b8b52)" style="fill: #e21a1b"/>
   </g>
   <g id="patch_118">
    <path d="M 89.932439 190.204899 
C 90.821567 190.204899 91.674398 189.851645 92.303106 189.222937 
C 92.931815 188.594228 93.285069 187.741397 93.285069 186.852269 
C 93.285069 185.963141 92.931815 185.11031 92.303106 184.481602 
C 91.674398 183.852893 90.821567 183.499639 89.932439 183.499639 
C 89.043311 183.499639 88.19048 183.852893 87.561771 184.481602 
C 86.933063 185.11031 86.579809 185.963141 86.579809 186.852269 
C 86.579809 187.741397 86.933063 188.594228 87.561771 189.222937 
C 88.19048 189.851645 89.043311 190.204899 89.932439 190.204899 
z
" clip-path="url(#p68458b8b52)" style="fill: #e21a1b"/>
   </g>
   <g id="patch_119">
    <path d="M 76.776881 187.653529 
C 77.666009 187.653529 78.51884 187.300275 79.147548 186.671566 
C 79.776256 186.042858 80.129511 185.190027 80.129511 184.300899 
C 80.129511 183.411771 79.776256 182.55894 79.147548 181.930232 
C 78.51884 181.301523 77.666009 180.948269 76.776881 180.948269 
C 75.887753 180.948269 75.034922 181.301523 74.406213 181.930232 
C 73.777505 182.55894 73.424251 183.411771 73.424251 184.300899 
C 73.424251 185.190027 73.777505 186.042858 74.406213 186.671566 
C 75.034922 187.300275 75.887753 187.653529 76.776881 187.653529 
z
" clip-path="url(#p68458b8b52)" style="fill: #e21a1b"/>
   </g>
  </g>
 </g>
 <defs>
  <clipPath id="p68458b8b52">
   <rect x="0" y="-0" width="199.941308" height="199.8"/>
  </clipPath>
 </defs>
</svg>
